<?xml version="1.0" encoding="UTF-8" standalone="no"?>
<svg width="613px" height="613px" viewBox="0 0 613 613" version="1.1" xmlns="http://www.w3.org/2000/svg" xmlns:xlink="http://www.w3.org/1999/xlink">
    <!-- Generator: Sketch 41.2 (35397) - http://www.bohemiancoding.com/sketch -->
    <title>circle-1</title>
    <desc>Created with Sketch.</desc>
    <defs></defs>
    <g id="Page-1" stroke="none" stroke-width="1" fill="none" fill-rule="evenodd">
        <g id="1.1---intro" transform="translate(-334.000000, -6066.000000)" fill="#292F6E">
            <g id="7" transform="translate(-121.000000, 5605.000000)">
                <path d="M761.5,1073.75 C766.867207,1073.75 772.218034,1073.61192 777.549046,1073.33667 C778.238484,1073.30107 778.768526,1072.71332 778.73293,1072.02388 C778.697333,1071.33444 778.109576,1070.8044 777.420139,1070.84 C772.132054,1071.11303 766.82421,1071.25 761.5,1071.25 C760.809644,1071.25 760.25,1071.80964 760.25,1072.5 C760.25,1073.19036 760.809644,1073.75 761.5,1073.75 Z M814.457042,1069.18784 C819.743901,1068.26621 824.997731,1067.20663 830.21445,1066.01068 C830.887349,1065.85642 831.307786,1065.18587 831.153522,1064.51297 C830.999258,1063.84007 830.328709,1063.41963 829.65581,1063.5739 C824.481928,1064.76003 819.271212,1065.81091 814.027702,1066.72499 C813.347603,1066.84354 812.892384,1067.49099 813.010943,1068.17108 C813.129502,1068.85118 813.776942,1069.3064 814.457042,1069.18784 Z M865.850062,1055.51214 C870.889481,1053.68593 875.877253,1051.72763 880.80887,1049.63961 C881.444593,1049.37045 881.74175,1048.63689 881.472589,1048.00117 C881.203427,1047.36545 880.469874,1047.06829 879.834151,1047.33745 C874.943056,1049.40831 869.996284,1051.35052 864.998302,1053.16172 C864.349249,1053.39692 864.013762,1054.11376 864.248969,1054.76281 C864.484176,1055.41186 865.20101,1055.74735 865.850062,1055.51214 Z M914.051676,1033.10978 C918.696526,1030.4363 923.270257,1027.64125 927.768242,1024.72786 C928.347672,1024.35255 928.51315,1023.57859 928.137847,1022.99916 C927.762545,1022.41973 926.988581,1022.25425 926.409151,1022.62955 C921.947861,1025.51918 917.411465,1028.29141 912.804554,1030.94306 C912.20623,1031.28744 912.00037,1032.05166 912.344754,1032.64998 C912.689137,1033.24831 913.453352,1033.45417 914.051676,1033.10978 Z M957.66322,1002.68858 C961.774411,999.255873 965.795595,995.716237 969.722404,992.073641 C970.228532,991.604146 970.258228,990.813247 969.788733,990.307119 C969.319238,989.800991 968.528339,989.771295 968.022211,990.24079 C964.127269,993.853825 960.138723,997.364732 956.060911,1000.76957 C955.53099,1001.21203 955.460094,1002.00031 955.90256,1002.53023 C956.345026,1003.06015 957.1333,1003.13105 957.66322,1002.68858 Z M995.413513,965.180355 C998.873543,961.090245 1002.22623,956.910527 1005.46779,952.645674 C1005.88553,952.096055 1005.77863,951.311852 1005.22901,950.894107 C1004.67939,950.476363 1003.89519,950.583268 1003.47744,951.132887 C1000.26223,955.363077 996.936783,959.508836 993.504856,963.565726 C993.058988,964.092787 993.124809,964.881502 993.65187,965.327369 C994.178931,965.773237 994.967646,965.707416 995.413513,965.180355 Z M1026.066,921.850942 C1028.76997,917.226141 1031.35224,912.530749 1033.8098,907.769394 C1034.12644,907.155935 1033.88582,906.401943 1033.27236,906.085307 C1032.6589,905.768671 1031.90491,906.009294 1031.58827,906.622754 C1029.15082,911.345139 1026.58967,916.002124 1023.90781,920.589118 C1023.55937,921.185086 1023.76002,921.950684 1024.35599,922.299127 C1024.95196,922.64757 1025.71756,922.446911 1026.066,921.850942 Z M1048.80761,873.773938 C1050.66563,868.752683 1052.39171,863.680406 1053.9837,858.561526 C1054.18872,857.902315 1053.82052,857.20172 1053.16131,856.996702 C1052.5021,856.791685 1051.8015,857.159881 1051.59649,857.819092 C1050.01759,862.895855 1048.30571,867.926402 1046.46298,872.906355 C1046.22341,873.553807 1046.55405,874.272886 1047.20151,874.512463 C1047.84896,874.752039 1048.56804,874.421391 1048.80761,873.773938 Z M1062.83166,822.460711 C1063.78512,817.199004 1064.60152,811.904998 1065.27949,806.582617 C1065.36672,805.897794 1064.88228,805.27192 1064.19746,805.184686 C1063.51264,805.097453 1062.88676,805.581895 1062.79953,806.266717 C1062.1271,811.545622 1061.31738,816.796327 1060.37172,822.014953 C1060.24863,822.694246 1060.69952,823.344709 1061.37881,823.467802 C1062.05811,823.590894 1062.70857,823.140005 1062.83166,822.460711 Z M1067.74383,769.464976 C1067.74794,768.810225 1067.75,768.155231 1067.75,767.5 C1067.75,762.789797 1067.64366,758.092163 1067.43158,753.409411 C1067.40034,752.719762 1066.81595,752.186011 1066.1263,752.217245 C1065.43665,752.248478 1064.9029,752.832869 1064.93414,753.522518 C1065.14451,758.167596 1065.25,762.827518 1065.25,767.5 C1065.25,768.149995 1065.24796,768.799753 1065.24388,769.449267 C1065.23954,770.139609 1065.79566,770.702759 1066.486,770.707097 C1067.17634,770.711435 1067.73949,770.155318 1067.74383,769.464976 Z M1063.5211,716.491968 C1062.63473,711.205203 1061.61063,705.95073 1060.45033,700.732596 C1060.30049,700.058699 1059.63271,699.633873 1058.95881,699.78372 C1058.28492,699.933567 1057.86009,700.601343 1058.00994,701.27524 C1059.16071,706.450539 1060.17641,711.661908 1061.05552,716.905344 C1061.16967,717.586198 1061.81415,718.0456 1062.495,717.93145 C1063.17585,717.817299 1063.63526,717.172821 1063.5211,716.491968 Z M1050.18455,665.024593 C1048.39103,659.97227 1046.46506,654.970893 1044.40899,650.024961 C1044.14399,649.387493 1043.41239,649.085549 1042.77492,649.350551 C1042.13745,649.615552 1041.83551,650.347148 1042.10051,650.984616 C1044.13968,655.8899 1046.04982,660.850159 1047.82859,665.860935 C1048.05954,666.511514 1048.77416,666.851692 1049.42474,666.620742 C1050.07532,666.389793 1050.4155,665.675173 1050.18455,665.024593 Z M1028.09892,616.679858 C1025.45759,612.020876 1022.69439,607.432187 1019.8125,602.918409 C1019.441,602.336536 1018.66813,602.166 1018.08626,602.537504 C1017.50439,602.909009 1017.33385,603.681874 1017.70536,604.263746 C1020.56372,608.740689 1023.30436,613.29191 1025.92411,617.912827 C1026.26459,618.513384 1027.02744,618.724221 1027.628,618.383746 C1028.22856,618.043271 1028.43939,617.280415 1028.09892,616.679858 Z M997.95399,572.862257 C994.549297,568.730836 991.037167,564.68866 987.421544,560.740108 C986.955326,560.23096 986.164635,560.196159 985.655487,560.662377 C985.146339,561.128596 985.111537,561.919286 985.577756,562.428434 C989.164034,566.34494 992.647654,570.354303 996.024702,574.452178 C996.463747,574.984936 997.251549,575.060906 997.784307,574.621862 C998.317065,574.182817 998.393035,573.395016 997.95399,572.862257 Z M960.6891,534.871161 C956.622663,531.386015 952.465994,528.00754 948.223546,524.739555 C947.676638,524.318268 946.891761,524.420104 946.470474,524.967013 C946.049187,525.513921 946.151023,526.298798 946.697931,526.720085 C950.905904,529.961514 955.028808,533.312544 959.062221,536.769388 C959.586402,537.218639 960.375523,537.157895 960.824774,536.633714 C961.274024,536.109533 961.21328,535.320412 960.6891,534.871161 Z M917.54312,503.930658 C912.935834,501.197108 908.25724,498.584787 903.511967,496.096733 C902.900557,495.776156 902.145033,496.011924 901.824457,496.623334 C901.503881,497.234744 901.739648,497.990268 902.351059,498.310844 C907.057504,500.778541 911.697839,503.3695 916.267472,506.08071 C916.861193,506.43297 917.628062,506.237228 917.980322,505.643508 C918.332583,505.049788 918.136841,504.282919 917.54312,503.930658 Z M869.609695,480.878406 C864.601576,478.988461 859.541745,477.230095 854.434634,475.605489 C853.776762,475.396216 853.073801,475.759877 852.864528,476.417749 C852.655254,477.075622 853.018915,477.778582 853.676788,477.987856 C858.74188,479.599095 863.760086,481.342996 868.727016,483.217397 C869.37291,483.461142 870.094106,483.135135 870.337851,482.489241 C870.581596,481.843347 870.25559,481.122151 869.609695,480.878406 Z M818.401136,466.526443 C813.145496,465.538919 807.856896,464.688356 802.539282,463.976156 C801.855036,463.884513 801.226054,464.364913 801.134411,465.04916 C801.042768,465.733406 801.523168,466.362388 802.207415,466.454031 C807.481564,467.160409 812.726883,468.004012 817.93947,468.983446 C818.617953,469.110932 819.271319,468.66426 819.398805,467.985778 C819.52629,467.307295 819.079619,466.653929 818.401136,466.526443 Z M765.442478,461.274859 C764.129312,461.25829 762.815136,461.25 761.5,461.25 C757.457537,461.25 753.424295,461.32833 749.401735,461.484609 C748.711899,461.511409 748.174403,462.092357 748.201204,462.782193 C748.228004,463.472028 748.808953,464.009525 749.498788,463.982724 C753.489015,463.827702 757.4899,463.75 761.5,463.75 C762.804622,463.75 764.108284,463.758224 765.410937,463.77466 C766.101238,463.783369 766.667898,463.23083 766.676608,462.540529 C766.685318,461.850228 766.132779,461.283568 765.442478,461.274859 Z M712.415518,465.162705 C707.120994,466.015668 701.858139,467.00657 696.630984,468.1339 C695.956144,468.279441 695.527063,468.944492 695.672604,469.619332 C695.818145,470.294172 696.483196,470.723253 697.158036,470.577712 C702.342297,469.459633 707.561996,468.476856 712.813148,467.63088 C713.494716,467.521078 713.958223,466.879545 713.848421,466.197977 C713.738618,465.516409 713.097086,465.052902 712.415518,465.162705 Z M660.877176,478.164532 C655.812996,479.925505 650.799058,481.819233 645.839852,483.843402 C645.200688,484.104286 644.894031,484.833919 645.154915,485.473083 C645.415799,486.112247 646.145432,486.418904 646.784596,486.15802 C651.703038,484.15049 656.675749,482.272334 661.698278,480.525843 C662.350336,480.299102 662.695124,479.586695 662.468383,478.934637 C662.241642,478.282579 661.529234,477.937791 660.877176,478.164532 Z M612.393181,499.937007 C607.715636,502.549263 603.107715,505.283939 598.574043,508.137871 C597.989807,508.505646 597.81433,509.277404 598.182105,509.861641 C598.54988,510.445878 599.321639,510.621355 599.905876,510.253579 C604.402539,507.422944 608.972824,504.710604 613.612142,502.119697 C614.214875,501.783091 614.430613,501.021605 614.094006,500.418872 C613.7574,499.816139 612.995914,499.600401 612.393181,499.937007 Z M568.373744,529.808431 C564.219299,533.188052 560.153489,536.675771 556.180712,540.267667 C555.668627,540.730657 555.628828,541.521112 556.091818,542.033197 C556.554808,542.545282 557.345263,542.585082 557.857348,542.122091 C561.797879,538.559351 565.830681,535.099947 569.951388,531.747771 C570.486922,531.312117 570.56789,530.524813 570.132236,529.989279 C569.696581,529.453745 568.909278,529.372777 568.373744,529.808431 Z M530.165398,566.810593 C526.653057,570.855792 523.246853,574.991962 519.950633,579.214656 C519.525841,579.758846 519.622632,580.544362 520.166821,580.969154 C520.711011,581.393947 521.496527,581.297156 521.921319,580.752966 C525.190758,576.56458 528.569297,572.462004 532.053118,568.449652 C532.505731,567.928372 532.450066,567.138876 531.928787,566.686263 C531.407507,566.233649 530.618011,566.289314 530.165398,566.810593 Z M498.952718,609.746943 C496.189604,614.335746 493.54721,618.996565 491.028602,623.724773 C490.70404,624.334077 490.934869,625.091125 491.544173,625.415687 C492.153476,625.740248 492.910524,625.50942 493.235086,624.900116 C495.733092,620.210583 498.353885,615.587867 501.094423,611.036555 C501.45054,610.44514 501.259792,609.677013 500.668377,609.320897 C500.076961,608.96478 499.308835,609.155528 498.952718,609.746943 Z M475.586306,657.532862 C473.663201,662.529714 471.871428,667.579024 470.2132,672.676343 C469.999635,673.332835 470.358697,674.038155 471.015188,674.251721 C471.67168,674.465287 472.377,674.106224 472.590566,673.449733 C474.235152,668.394348 476.012187,663.386573 477.919476,658.430813 C478.167438,657.786526 477.846154,657.063214 477.201866,656.815252 C476.557579,656.56729 475.834268,656.888574 475.586306,657.532862 Z M460.896723,708.66273 C459.875201,713.912042 458.990533,719.194977 458.244149,724.507569 C458.148102,725.191211 458.624442,725.823274 459.308084,725.919321 C459.991726,726.015368 460.623789,725.539028 460.719836,724.855386 C461.460115,719.586244 462.337539,714.346566 463.35069,709.140275 C463.48256,708.462631 463.040123,707.80639 462.362479,707.674519 C461.684835,707.542649 461.028594,707.985086 460.896723,708.66273 Z M455.306609,761.552189 C455.269024,763.525161 455.25014,765.500484 455.250001,767.477988 C455.25,770.881761 455.304819,774.259881 455.414502,777.633414 C455.436935,778.323406 456.014469,778.864568 456.704461,778.842135 C457.394452,778.819701 457.935615,778.242167 457.913181,777.552175 C457.804379,774.205733 457.75,770.854696 457.750001,767.478076 C457.750139,765.516475 457.768871,763.556966 457.806155,761.599805 C457.819304,760.909574 457.270421,760.339372 456.58019,760.326224 C455.889959,760.313075 455.319757,760.861958 455.306609,761.552189 Z M458.853896,814.627246 C459.672896,819.929696 460.630051,825.201105 461.723875,830.437458 C461.865037,831.113228 462.527291,831.546613 463.203061,831.405451 C463.87883,831.264289 464.312215,830.602035 464.171054,829.926266 C463.086202,824.732866 462.136892,819.504663 461.324598,814.245629 C461.219218,813.563364 460.580704,813.095706 459.898439,813.201086 C459.216173,813.306467 458.748516,813.94498 458.853896,814.627246 Z M471.525175,866.264829 C473.253414,871.34043 475.114699,876.366497 477.106745,881.33855 C477.363495,881.979386 478.091133,882.29075 478.731969,882.034 C479.372804,881.777249 479.684168,881.049612 479.427418,880.408776 C477.451748,875.477598 475.60577,870.492865 473.891746,865.459013 C473.669226,864.805502 472.959063,864.456115 472.305552,864.678635 C471.652042,864.901155 471.302655,865.611319 471.525175,866.264829 Z M492.983628,914.886708 C495.566495,919.582344 498.272309,924.209036 501.097934,928.762152 C501.46196,929.348732 502.232579,929.529147 502.819159,929.16512 C503.405739,928.801094 503.586154,928.030475 503.222128,927.443895 C500.419575,922.927957 497.735867,918.339066 495.174115,913.681815 C494.841393,913.076929 494.081311,912.856296 493.476425,913.189018 C492.871539,913.52174 492.650906,914.281822 492.983628,914.886708 Z M522.562331,959.084352 C525.916368,963.262038 529.379174,967.351712 532.946847,971.348956 C533.406543,971.864001 534.196726,971.908871 534.711771,971.449176 C535.226816,970.989481 535.271687,970.199298 534.811991,969.684252 C531.273279,965.719457 527.838589,961.66299 524.511794,957.519234 C524.079599,956.980905 523.292833,956.894866 522.754504,957.327062 C522.216174,957.759257 522.130136,958.546023 522.562331,959.084352 Z M559.318771,997.530852 C563.341919,1001.06969 567.456745,1004.50297 571.658816,1007.82681 C572.200263,1008.25509 572.986384,1008.16336 573.414668,1007.62191 C573.842953,1007.08047 573.751217,1006.29434 573.20977,1005.86606 C569.041835,1002.56922 564.960423,999.163825 560.969938,995.653715 C560.451581,995.197757 559.661743,995.248342 559.205786,995.766699 C558.749828,996.285057 558.800413,997.074895 559.318771,997.530852 Z M602.068857,1029.02949 C606.639973,1031.82203 611.283826,1034.49432 615.995789,1037.04327 C616.602995,1037.37174 617.36151,1037.14577 617.689979,1036.53857 C618.018448,1035.93136 617.792487,1035.17285 617.185281,1034.84438 C612.51185,1032.31628 607.90595,1029.66583 603.37217,1026.8961 C602.783049,1026.5362 602.013715,1026.72202 601.653816,1027.31114 C601.293916,1027.90026 601.479736,1028.66959 602.068857,1029.02949 Z M649.681219,1052.69411 C654.665604,1054.6499 659.703174,1056.47466 664.789466,1058.16615 C665.444547,1058.384 666.1522,1058.02955 666.370053,1057.37447 C666.587906,1056.71939 666.233462,1056.01174 665.578381,1055.79389 C660.53393,1054.11631 655.537793,1052.30656 650.594392,1050.36686 C649.951738,1050.11469 649.226343,1050.43125 648.974178,1051.0739 C648.722012,1051.71655 649.038565,1052.44195 649.681219,1052.69411 Z M700.730929,1067.72086 C705.973751,1068.77633 711.250862,1069.69506 716.558274,1070.47559 C717.241283,1070.57603 717.876399,1070.10377 717.976845,1069.42076 C718.077291,1068.73775 717.605029,1068.10264 716.92202,1068.00219 C711.658039,1067.22805 706.424159,1066.31685 701.224323,1065.27003 C700.547546,1065.13379 699.888459,1065.57197 699.752212,1066.24875 C699.615965,1066.92553 700.054151,1067.58462 700.730929,1067.72086 Z M753.580764,1073.64959 C756.210124,1073.71634 758.843782,1073.74984 761.481335,1073.75 C762.171691,1073.75004 762.731368,1073.19043 762.73141,1072.50007 C762.731451,1071.80972 762.17184,1071.25004 761.481484,1071.25 C758.865032,1071.24984 756.252473,1071.21661 753.644205,1071.1504 C752.954072,1071.13288 752.380406,1071.67814 752.362887,1072.36828 C752.345368,1073.05841 752.890631,1073.63207 753.580764,1073.64959 Z" id="circle-1"></path>
            </g>
        </g>
    </g>
</svg>