<?xml version="1.0" encoding="UTF-8" standalone="no"?>
<svg width="1098px" height="1110px" viewBox="0 0 1098 1110" version="1.1" xmlns="http://www.w3.org/2000/svg" xmlns:xlink="http://www.w3.org/1999/xlink">
    <!-- Generator: Sketch 41.2 (35397) - http://www.bohemiancoding.com/sketch -->
    <title>circle-5</title>
    <desc>Created with Sketch.</desc>
    <defs></defs>
    <g id="Page-1" stroke="none" stroke-width="1" fill="none" fill-rule="evenodd">
        <g id="1.1---intro" transform="translate(-91.000000, -5812.000000)" fill="#292F6E">
            <g id="7" transform="translate(-121.000000, 5605.000000)">
                <path d="M761,1316.80264 C763.338604,1316.80264 765.675512,1316.78785 768.010635,1316.7583 C768.700935,1316.74957 769.253453,1316.18289 769.244718,1315.49259 C769.235983,1314.80229 768.669302,1314.24977 767.979002,1314.2585 C765.654422,1314.28792 763.32806,1314.30264 761,1314.30264 C760.309644,1314.30264 759.75,1314.86228 759.75,1315.55264 C759.75,1316.243 760.309644,1316.80264 761,1316.80264 Z M797.039629,1315.62559 C799.370994,1315.47283 801.700035,1315.30524 804.026659,1315.12286 C804.714904,1315.06891 805.229101,1314.46724 805.17515,1313.77899 C805.1212,1313.09075 804.519531,1312.57655 803.831287,1312.6305 C801.515293,1312.81205 799.196888,1312.97887 796.876165,1313.13094 C796.187287,1313.17608 795.665433,1313.77112 795.710572,1314.46 C795.755712,1315.14888 796.350751,1315.67073 797.039629,1315.62559 Z M832.967711,1312.07575 C835.290381,1311.76825 837.610039,1311.44585 839.926585,1311.10861 C840.60974,1311.00915 841.082922,1310.37472 840.983468,1309.69157 C840.884013,1309.00841 840.249583,1308.53523 839.566429,1308.63469 C837.26055,1308.97038 834.95157,1309.29129 832.63959,1309.59738 C831.955206,1309.68799 831.473855,1310.31624 831.564464,1311.00063 C831.655072,1311.68501 832.283327,1312.16636 832.967711,1312.07575 Z M868.548504,1306.15526 C870.843179,1305.69441 873.13414,1305.21883 875.42128,1304.72853 C876.0963,1304.58382 876.526205,1303.9193 876.3815,1303.24428 C876.236795,1302.56926 875.572277,1302.13936 874.897257,1302.28406 C872.620692,1302.77209 870.340324,1303.24549 868.056257,1303.7042 C867.379416,1303.84013 866.940921,1304.49901 867.076851,1305.17585 C867.212781,1305.85269 867.871663,1306.29119 868.548504,1306.15526 Z M903.680017,1297.87038 C905.941984,1297.2565 908.199487,1296.62802 910.452415,1295.98499 C911.11626,1295.79552 911.500814,1295.10377 911.311339,1294.43992 C911.121865,1293.77608 910.430112,1293.39152 909.766267,1293.581 C907.523769,1294.22105 905.276717,1294.84662 903.025221,1295.45766 C902.358965,1295.63848 901.965439,1296.32516 902.146256,1296.99142 C902.327073,1297.65768 903.013761,1298.0512 903.680017,1297.87038 Z M938.205376,1287.24885 C940.41428,1286.48758 942.617991,1285.71208 944.816397,1284.9224 C945.466108,1284.68902 945.803612,1283.97313 945.570232,1283.32342 C945.336853,1282.67371 944.620966,1282.33621 943.971254,1282.56959 C941.783012,1283.35561 939.58949,1284.12753 937.390801,1284.88528 C936.738119,1285.11022 936.391365,1285.82167 936.616303,1286.47436 C936.841242,1287.12704 937.552694,1287.47379 938.205376,1287.24885 Z M971.872183,1274.37605 C974.033459,1273.46612 976.188732,1272.54221 978.337884,1271.60438 C978.97062,1271.32827 979.259724,1270.5915 978.983616,1269.95877 C978.707508,1269.32603 977.970743,1269.03693 977.338007,1269.31303 C975.19876,1270.24654 973.053423,1271.1662 970.902112,1272.07193 C970.265847,1272.33981 969.967211,1273.07276 970.235089,1273.70903 C970.502966,1274.34529 971.235919,1274.64393 971.872183,1274.37605 Z M1004.62978,1259.28453 C1006.72117,1258.23555 1008.80582,1257.17309 1010.88359,1256.0972 C1011.49664,1255.77977 1011.73627,1255.02546 1011.41884,1254.41242 C1011.1014,1253.79937 1010.34709,1253.55973 1009.73405,1253.87717 C1007.66581,1254.94811 1005.59073,1256.0057 1003.50894,1257.04986 C1002.89186,1257.35937 1002.64252,1258.11052 1002.95203,1258.72761 C1003.26154,1259.3447 1004.01269,1259.59404 1004.62978,1259.28453 Z M1036.32859,1242.04974 C1038.34945,1240.86286 1040.36277,1239.66293 1042.36842,1238.45005 C1042.95916,1238.09281 1043.14845,1237.32433 1042.79121,1236.73359 C1042.43398,1236.14285 1041.66549,1235.95356 1041.07475,1236.3108 C1039.07826,1237.51814 1037.07414,1238.71258 1035.06251,1239.89404 C1034.46723,1240.24366 1034.26808,1241.00965 1034.6177,1241.60493 C1034.96732,1242.20021 1035.73331,1242.39936 1036.32859,1242.04974 Z M1066.86657,1222.73214 C1068.80276,1221.41613 1070.73065,1220.08767 1072.65014,1218.74685 C1073.21609,1218.35151 1073.3544,1217.57224 1072.95907,1217.00629 C1072.56373,1216.44033 1071.78446,1216.30202 1071.2185,1216.69736 C1069.30775,1218.03208 1067.38862,1219.3545 1065.46123,1220.66452 C1064.89028,1221.0526 1064.74202,1221.83004 1065.13009,1222.401 C1065.51817,1222.97195 1066.29561,1223.12021 1066.86657,1222.73214 Z M1096.01706,1201.48973 C1097.86241,1200.05025 1099.69872,1198.59893 1101.52588,1197.13587 C1102.06477,1196.70437 1102.15182,1195.91771 1101.72032,1195.37883 C1101.28882,1194.83994 1100.50217,1194.75289 1099.96328,1195.18439 C1098.14439,1196.64082 1096.31639,1198.08557 1094.47941,1199.51854 C1093.93507,1199.94315 1093.83802,1200.72863 1094.26264,1201.27296 C1094.68725,1201.81729 1095.47273,1201.91434 1096.01706,1201.48973 Z M1123.69314,1178.41048 C1125.43821,1176.85616 1127.17356,1175.2907 1128.89908,1173.71419 C1129.40874,1173.24854 1129.44442,1172.45789 1128.97877,1171.94822 C1128.51312,1171.43856 1127.72247,1171.40288 1127.2128,1171.86853 C1125.49507,1173.43792 1123.76755,1174.99632 1122.03035,1176.54363 C1121.51484,1177.00279 1121.46915,1177.79293 1121.92832,1178.30845 C1122.38749,1178.82396 1123.17762,1178.86964 1123.69314,1178.41048 Z M1149.84419,1153.54547 C1151.48277,1151.88273 1153.11097,1150.20955 1154.72868,1148.52606 C1155.20702,1148.02827 1155.19125,1147.23698 1154.69346,1146.75864 C1154.19568,1146.28031 1153.40438,1146.29608 1152.92605,1146.79386 C1151.31562,1148.46978 1149.69474,1150.13542 1148.06353,1151.79068 C1147.57896,1152.28239 1147.58475,1153.07383 1148.07647,1153.5584 C1148.56818,1154.04297 1149.35961,1154.03718 1149.84419,1153.54547 Z M1174.30825,1127.05396 C1175.83576,1125.28825 1177.35224,1123.51283 1178.85758,1121.72781 C1179.30264,1121.20006 1179.23561,1120.41145 1178.70787,1119.96639 C1178.18012,1119.52133 1177.39151,1119.58837 1176.94645,1120.11611 C1175.44787,1121.89311 1173.93821,1123.66055 1172.41756,1125.41832 C1171.96589,1125.94042 1172.02299,1126.72981 1172.54508,1127.18148 C1173.06718,1127.63315 1173.85658,1127.57606 1174.30825,1127.05396 Z M1197.037,1098.98945 C1198.44743,1097.12747 1199.8462,1095.25652 1201.23322,1093.37672 C1201.64311,1092.82121 1201.52506,1092.03861 1200.96955,1091.62872 C1200.41404,1091.21884 1199.63144,1091.33689 1199.22156,1091.8924 C1197.84077,1093.76376 1196.44828,1095.6263 1195.04419,1097.47991 C1194.62734,1098.03021 1194.73553,1098.81424 1195.28583,1099.23109 C1195.83613,1099.64793 1196.62015,1099.53975 1197.037,1098.98945 Z M1217.88621,1069.52666 C1219.17547,1067.57333 1220.45247,1065.61176 1221.71713,1063.64207 C1222.09012,1063.06115 1221.92155,1062.28785 1221.34063,1061.91486 C1220.7597,1061.54188 1219.98641,1061.71044 1219.61342,1062.29137 C1218.35445,1064.2522 1217.08318,1066.20495 1215.79971,1068.1495 C1215.41942,1068.72567 1215.57821,1069.50104 1216.15438,1069.88133 C1216.73055,1070.26162 1217.50591,1070.10283 1217.88621,1069.52666 Z M1236.78565,1038.7651 C1237.94477,1036.73338 1239.09113,1034.69421 1240.22466,1032.64771 C1240.55916,1032.0438 1240.34076,1031.28307 1239.73685,1030.94858 C1239.13295,1030.61408 1238.37222,1030.83248 1238.03772,1031.43639 C1236.90929,1033.47368 1235.76809,1035.50368 1234.61419,1037.52626 C1234.27209,1038.12589 1234.48086,1038.88932 1235.0805,1039.23141 C1235.68013,1039.57351 1236.44356,1039.36473 1236.78565,1038.7651 Z M1253.64358,1006.84991 C1254.6687,1004.74635 1255.6806,1002.63612 1256.67922,1000.51934 C1256.97378,999.894977 1256.70641,999.150048 1256.08205,998.855495 C1255.45769,998.560942 1254.71276,998.828306 1254.4182,999.45267 C1253.42408,1001.55992 1252.41673,1003.66064 1251.39623,1005.75472 C1251.09381,1006.37531 1251.35173,1007.12356 1251.97232,1007.42599 C1252.5929,1007.72842 1253.34115,1007.4705 1253.64358,1006.84991 Z M1268.38166,973.931406 C1269.26688,971.768268 1270.13855,969.599253 1270.99659,967.424477 C1271.24996,966.782297 1270.93476,966.056311 1270.29258,965.802943 C1269.6504,965.549575 1268.92441,965.86477 1268.67105,966.506951 C1267.81687,968.671923 1266.94914,970.83116 1266.06791,972.984548 C1265.80644,973.623473 1266.11243,974.353386 1266.75135,974.614854 C1267.39028,974.876322 1268.12019,974.570332 1268.38166,973.931406 Z M1280.96978,940.063125 C1281.71249,937.846247 1282.44133,935.624258 1283.15623,933.39727 C1283.36724,932.739952 1283.00543,932.036034 1282.34812,931.825024 C1281.6908,931.614014 1280.98688,931.975818 1280.77587,932.633135 C1280.06419,934.850086 1279.33864,937.06206 1278.59928,939.268946 C1278.37997,939.923542 1278.73285,940.63198 1279.38744,940.851286 C1280.04204,941.070593 1280.75048,940.717721 1280.96978,940.063125 Z M1291.31303,905.496998 C1291.91001,903.236939 1292.49287,900.972521 1293.06158,898.703852 C1293.22944,898.034215 1292.82267,897.355287 1292.15304,897.187424 C1291.4834,897.01956 1290.80447,897.426328 1290.63661,898.095964 C1290.07046,900.354425 1289.49022,902.608653 1288.89593,904.85854 C1288.71962,905.526004 1289.11779,906.210013 1289.78525,906.386319 C1290.45271,906.562624 1291.13672,906.164461 1291.31303,905.496998 Z M1299.36843,870.445075 C1299.81793,868.15205 1300.25317,865.855393 1300.67411,863.555206 C1300.79838,862.876127 1300.34862,862.224883 1299.66954,862.100611 C1298.99046,861.976339 1298.33922,862.426099 1298.21495,863.105178 C1297.7959,865.395054 1297.36261,867.681413 1296.91512,869.964153 C1296.78232,870.641615 1297.22386,871.298465 1297.90132,871.431267 C1298.57878,871.56407 1299.23563,871.122537 1299.36843,870.445075 Z M1305.15876,834.853325 C1305.45948,832.535851 1305.74584,830.215437 1306.01782,827.892182 C1306.09809,827.206508 1305.60731,826.585588 1304.92164,826.505318 C1304.23597,826.425048 1303.61505,826.915824 1303.53478,827.601498 C1303.26401,829.914405 1302.97892,832.22448 1302.67955,834.531624 C1302.59071,835.21624 1303.07369,835.843247 1303.75831,835.932082 C1304.44292,836.020918 1305.06993,835.537942 1305.15876,834.853325 Z M1308.65214,798.92559 C1308.80375,796.593395 1308.941,794.258919 1309.06385,791.922253 C1309.1001,791.232849 1308.57061,790.644593 1307.88121,790.608346 C1307.1918,790.5721 1306.60355,791.101588 1306.5673,791.790992 C1306.44499,794.117349 1306.30835,796.44152 1306.15741,798.763414 C1306.11262,799.452316 1306.63479,800.047085 1307.32369,800.091869 C1308.01259,800.136653 1308.60736,799.614492 1308.65214,798.92559 Z M1309.84786,762.869412 C1309.8483,762.579634 1309.84852,762.28983 1309.84852,762 C1309.84852,759.95361 1309.83756,757.908505 1309.81565,755.864741 C1309.80825,755.174424 1309.24264,754.620811 1308.55232,754.628211 C1307.86201,754.63561 1307.30839,755.201221 1307.31579,755.891537 C1307.3376,757.926369 1307.34852,759.962543 1307.34852,762 C1307.34852,762.288565 1307.3483,762.577105 1307.34786,762.865619 C1307.34681,763.555974 1307.90561,764.116466 1308.59596,764.117514 C1309.28632,764.118561 1309.84681,763.559767 1309.84786,762.869412 Z M1308.76421,726.841086 C1308.61921,724.497342 1308.45972,722.155897 1308.28575,719.816843 C1308.23455,719.128389 1307.63493,718.611795 1306.94648,718.662999 C1306.25802,718.714204 1305.74143,719.313815 1305.79264,720.00227 C1305.96583,722.330976 1306.12463,724.66207 1306.26898,726.995457 C1306.31161,727.684496 1306.90475,728.208515 1307.59378,728.165886 C1308.28282,728.123258 1308.80684,727.530125 1308.76421,726.841086 Z M1305.38103,690.880795 C1305.08718,688.5595 1304.77894,686.241146 1304.45635,683.925833 C1304.36108,683.242082 1303.72956,682.765022 1303.04581,682.86029 C1302.36206,682.955557 1301.885,683.587076 1301.98027,684.270827 C1302.30142,686.575809 1302.60829,688.88382 1302.90083,691.194765 C1302.98753,691.879655 1303.61303,692.364584 1304.29792,692.277883 C1304.98281,692.191183 1305.46773,691.565685 1305.38103,690.880795 Z M1299.69847,655.252486 C1299.25554,652.955262 1298.79832,650.661676 1298.32683,648.37183 C1298.18761,647.695659 1297.5266,647.260378 1296.85043,647.399604 C1296.17425,647.538829 1295.73897,648.199839 1295.8782,648.87601 C1296.34757,651.155579 1296.80274,653.438874 1297.24368,655.725793 C1297.37438,656.403663 1298.02986,656.847233 1298.70773,656.716533 C1299.3856,656.585833 1299.82917,655.930356 1299.69847,655.252486 Z M1291.72094,620.056388 C1291.12871,617.787755 1290.52229,615.523506 1289.90171,613.26375 C1289.71889,612.598041 1289.03102,612.206581 1288.36531,612.389399 C1287.6996,612.572218 1287.30814,613.260086 1287.49096,613.925795 C1288.10875,616.175377 1288.71244,618.429433 1289.30201,620.687854 C1289.47638,621.355824 1290.15924,621.755963 1290.82721,621.581589 C1291.49518,621.407214 1291.89532,620.724359 1291.72094,620.056388 Z M1281.47371,585.448225 C1280.73717,583.22861 1279.98673,581.014108 1279.22247,578.804829 C1278.99677,578.152408 1278.28492,577.806478 1277.6325,578.032173 C1276.98008,578.257868 1276.63415,578.969722 1276.85984,579.622143 C1277.62066,581.821462 1278.36771,584.025983 1279.10094,586.235592 C1279.31836,586.890815 1280.02578,587.24572 1280.68101,587.028295 C1281.33623,586.81087 1281.69114,586.103448 1281.47371,585.448225 Z M1269.01855,551.631675 C1268.14075,549.467912 1267.24941,547.310011 1266.3446,545.158085 C1266.07702,544.521695 1265.34421,544.222715 1264.70782,544.490295 C1264.07143,544.757875 1263.77245,545.490687 1264.04003,546.127077 C1264.94076,548.269303 1265.82808,550.417478 1266.70192,552.571487 C1266.96144,553.211206 1267.69042,553.519416 1268.33014,553.259893 C1268.96986,553.000371 1269.27807,552.271393 1269.01855,551.631675 Z M1254.37655,518.659956 C1253.35627,516.550136 1252.32273,514.447002 1251.27602,512.350672 C1250.96762,511.733028 1250.21692,511.482333 1249.59927,511.790729 C1248.98163,512.099124 1248.73093,512.849827 1249.03933,513.467471 C1250.08134,515.554361 1251.11022,517.648024 1252.1259,519.748341 C1252.42645,520.36984 1253.17392,520.630022 1253.79542,520.329473 C1254.41692,520.028923 1254.6771,519.281455 1254.37655,518.659956 Z M1237.61137,486.687292 C1236.45985,484.654718 1235.29561,482.629567 1234.11872,480.611958 C1233.77088,480.015637 1233.00549,479.814202 1232.40917,480.162041 C1231.81284,480.50988 1231.61141,481.275273 1231.95925,481.871595 C1233.13084,483.880129 1234.28985,485.89617 1235.43618,487.9196 C1235.77648,488.52026 1236.53927,488.73133 1237.13993,488.391037 C1237.74059,488.050745 1237.95166,487.287952 1237.61137,486.687292 Z M1218.80112,455.864029 C1217.52094,453.911772 1216.22855,451.967704 1214.92404,450.031943 C1214.53824,449.459451 1213.76139,449.308108 1213.18889,449.693911 C1212.6164,450.079713 1212.46506,450.856565 1212.85086,451.429057 C1214.14951,453.356119 1215.43609,455.29145 1216.71052,457.234933 C1217.08908,457.812237 1217.86397,457.973348 1218.44127,457.594783 C1219.01858,457.216218 1219.17969,456.441333 1218.80112,455.864029 Z M1198.03741,426.335351 C1196.63339,424.470295 1195.21772,422.614194 1193.7905,420.767162 C1193.36839,420.220889 1192.58336,420.120236 1192.03709,420.542347 C1191.49082,420.964457 1191.39016,421.749487 1191.81228,422.29576 C1193.23308,424.134494 1194.64239,425.982256 1196.04011,427.838933 C1196.45531,428.390475 1197.23901,428.500999 1197.79055,428.085796 C1198.34209,427.670593 1198.45262,426.886892 1198.03741,426.335351 Z M1175.45793,398.279262 C1173.93186,396.503896 1172.39468,394.738286 1170.8465,392.982545 C1170.38991,392.464743 1169.60002,392.41512 1169.08221,392.871708 C1168.56441,393.328295 1168.51479,394.118194 1168.97138,394.635996 C1170.5126,396.383845 1172.04286,398.141519 1173.56208,399.908905 C1174.01209,400.432431 1174.8013,400.492024 1175.32482,400.042011 C1175.84835,399.591998 1175.90794,398.802788 1175.45793,398.279262 Z M1151.0765,371.708981 C1149.44029,370.038105 1147.79366,368.377689 1146.1367,366.727841 C1145.64749,366.240737 1144.85604,366.242439 1144.36893,366.731643 C1143.88183,367.220847 1143.88353,368.012302 1144.37274,368.499406 C1146.02224,370.141825 1147.66146,371.794766 1149.2903,373.458121 C1149.77331,373.951366 1150.56473,373.959662 1151.05797,373.476651 C1151.55122,372.993639 1151.55951,372.202227 1151.0765,371.708981 Z M1125.00396,346.76079 C1123.2626,345.199841 1121.5115,343.650046 1119.75077,342.111507 C1119.23092,341.657256 1118.44125,341.710437 1117.987,342.23029 C1117.53275,342.750143 1117.58593,343.53981 1118.10578,343.994061 C1119.85856,345.525654 1121.60176,347.068453 1123.33526,348.622357 C1123.84931,349.083156 1124.63959,349.039982 1125.10039,348.525924 C1125.56119,348.011867 1125.51802,347.221589 1125.00396,346.76079 Z M1097.36134,323.562241 C1095.52096,322.117443 1093.67153,320.684466 1091.8132,319.263407 C1091.26481,318.844054 1090.48029,318.948662 1090.06094,319.497055 C1089.64159,320.045447 1089.7462,320.82996 1090.29459,321.249313 C1092.1445,322.663932 1093.98554,324.090417 1095.8176,325.52867 C1096.36061,325.954964 1097.14639,325.860343 1097.57269,325.317329 C1097.99898,324.774314 1097.90436,323.988534 1097.36134,323.562241 Z M1068.2787,302.230884 C1066.34906,300.91054 1064.41115,299.60261 1062.46509,298.307182 C1061.89041,297.924641 1061.11443,298.080397 1060.73189,298.655074 C1060.34935,299.22975 1060.5051,300.005729 1061.07978,300.388271 C1063.01699,301.677803 1064.94608,302.979781 1066.86694,304.294118 C1067.43668,304.683965 1068.21459,304.538127 1068.60443,303.968381 C1068.99428,303.398635 1068.84844,302.620731 1068.2787,302.230884 Z M1037.80445,282.820164 C1035.79255,281.630052 1033.77314,280.452905 1031.74633,279.288802 C1031.14769,278.94497 1030.38367,279.151533 1030.03984,279.750174 C1029.696,280.348815 1029.90257,281.11284 1030.50121,281.456672 C1032.51874,282.615452 1034.52892,283.787217 1036.53162,284.971888 C1037.12581,285.323369 1037.89242,285.12662 1038.2439,284.532438 C1038.59538,283.938255 1038.39863,283.171644 1037.80445,282.820164 Z M1006.165,265.488528 C1004.07672,264.43285 1001.98169,263.390658 999.880012,262.362027 C999.25994,262.058542 998.51125,262.315187 998.207766,262.935258 C997.904281,263.55533 998.160926,264.304019 998.780997,264.607504 C1000.87301,265.631409 1002.95843,266.668813 1005.03712,267.719644 C1005.65322,268.0311 1006.40516,267.784134 1006.71662,267.168028 C1007.02807,266.551923 1006.78111,265.799985 1006.165,265.488528 Z M973.414305,250.276012 C971.26185,249.361957 969.103422,248.461802 966.939138,247.57561 C966.300264,247.314016 965.570291,247.619861 965.308696,248.258735 C965.047102,248.897609 965.352947,249.627583 965.991821,249.889177 C968.146121,250.771281 970.294594,251.667284 972.437122,252.577123 C973.072557,252.846965 973.806428,252.550593 974.076269,251.915158 C974.346111,251.279724 974.049739,250.545853 973.414305,250.276012 Z M939.746978,237.285044 C937.538249,236.516368 935.324315,235.761949 933.105291,235.021842 C932.4504,234.803417 931.742438,235.157243 931.524013,235.812134 C931.305589,236.467025 931.659415,237.174987 932.314306,237.393411 C934.523066,238.130095 936.72676,238.881025 938.925274,239.646146 C939.577274,239.873053 940.28977,239.528447 940.516677,238.876447 C940.743584,238.224447 940.398979,237.511951 939.746978,237.285044 Z M905.265306,226.562442 C903.009464,225.942847 900.749173,225.337793 898.484542,224.74733 C897.81652,224.573154 897.133783,224.973497 896.959608,225.641519 C896.785432,226.309542 897.185775,226.992278 897.853797,227.166454 C900.107945,227.754184 902.357773,228.356436 904.603171,228.973163 C905.268873,229.156006 905.956755,228.764572 906.139599,228.09887 C906.322442,227.433167 905.931008,226.745285 905.265306,226.562442 Z M870.225797,218.184358 C867.935153,217.716782 865.640799,217.263921 863.342841,216.825817 C862.6647,216.696529 862.010149,217.141464 861.880862,217.819606 C861.751575,218.497747 862.196509,219.152298 862.874651,219.281585 C865.16199,219.717665 867.44574,220.168432 869.725797,220.633847 C870.402204,220.771919 871.06247,220.335511 871.200542,219.659103 C871.338613,218.982695 870.902205,218.322429 870.225797,218.184358 Z M834.735282,212.161214 C832.418929,211.846803 830.099574,211.547211 827.777315,211.262472 C827.092091,211.178454 826.468497,211.665829 826.38448,212.351053 C826.300462,213.036278 826.787837,213.659871 827.473061,213.743889 C829.784643,214.027319 832.093331,214.325532 834.399027,214.638497 C835.08311,214.731351 835.712942,214.252066 835.805796,213.567983 C835.898651,212.8839 835.419365,212.254068 834.735282,212.161214 Z M798.840923,208.495421 C796.508979,208.334899 794.174705,208.189216 791.838195,208.058399 C791.148918,208.019808 790.558865,208.547293 790.520274,209.236569 C790.481683,209.925846 791.009167,210.515899 791.698444,210.55449 C794.024305,210.684711 796.347934,210.829729 798.669239,210.989519 C799.357965,211.036929 799.95472,210.517039 800.00213,209.828313 C800.049539,209.139586 799.529649,208.542831 798.840923,208.495421 Z M762.747667,207.200113 C762.165217,207.198278 761.582661,207.19736 761,207.19736 C759.252656,207.19736 757.506258,207.205615 755.760842,207.222114 C755.070517,207.22864 754.516188,207.793549 754.522714,208.483874 C754.52924,209.174199 755.094149,209.728528 755.784474,209.722003 C757.522013,209.705577 759.260534,209.69736 761,209.69736 C761.580035,209.69736 762.159965,209.698274 762.739789,209.700101 C763.430142,209.702276 763.991546,209.144398 763.993722,208.454046 C763.995897,207.763693 763.438019,207.202289 762.747667,207.200113 Z M726.708587,208.262661 C724.370509,208.408363 722.034736,208.568964 719.701361,208.744439 C719.012948,208.796209 718.496848,209.396245 718.548618,210.084657 C718.600388,210.773069 719.200424,211.289169 719.888836,211.237399 C722.211555,211.062726 724.536667,210.902858 726.864077,210.757821 C727.553096,210.714884 728.076849,210.121516 728.033912,209.432496 C727.990974,208.743477 727.397606,208.219724 726.708587,208.262661 Z M690.801624,211.692951 C688.488015,211.991533 686.177357,212.304876 683.86975,212.632946 C683.186267,212.730116 682.710966,213.36296 682.808136,214.046444 C682.905306,214.729927 683.53815,215.205228 684.221633,215.108058 C686.518618,214.781498 688.818642,214.469597 691.121607,214.172389 C691.806285,214.084028 692.289695,213.457356 692.201334,212.772679 C692.112973,212.088001 691.486302,211.60459 690.801624,211.692951 Z M655.183128,217.49992 C652.880612,217.954521 650.581795,218.42396 648.286785,218.908197 C647.611301,219.050721 647.179252,219.713847 647.321775,220.38933 C647.464299,221.064814 648.127425,221.496864 648.802909,221.35434 C651.087309,220.872342 653.375498,220.405073 655.667371,219.952573 C656.344653,219.818853 656.785296,219.161407 656.651576,218.484125 C656.517856,217.806844 655.860409,217.3662 655.183128,217.49992 Z M620.009627,225.673996 C617.75367,226.278404 615.502111,226.897319 613.255057,227.530693 C612.590593,227.717985 612.203768,228.40847 612.391059,229.072934 C612.578351,229.737399 613.268836,230.124224 613.933301,229.936932 C616.169951,229.30649 618.411088,228.69044 620.656601,228.08883 C621.323439,227.910173 621.719188,227.224764 621.540531,226.557926 C621.361874,225.891088 620.676465,225.495339 620.009627,225.673996 Z M585.487782,236.170755 C583.269888,236.926918 581.057178,237.697412 578.849767,238.48218 C578.199296,238.713432 577.859451,239.428211 578.090704,240.078683 C578.321957,240.729155 579.036736,241.068999 579.687207,240.837746 C581.884411,240.056607 584.086889,239.289676 586.294526,238.53701 C586.94795,238.314234 587.297058,237.603934 587.074282,236.95051 C586.851506,236.297087 586.141205,235.947979 585.487782,236.170755 Z M551.768925,248.936183 C549.610323,249.83666 547.457654,250.751064 545.311036,251.679332 C544.677388,251.953342 544.385844,252.689144 544.659854,253.322792 C544.933864,253.95644 545.669666,254.247984 546.303314,253.973974 C548.440037,253.049986 550.58278,252.139798 552.731428,251.243473 C553.368568,250.977686 553.669609,250.245717 553.403821,249.608577 C553.138033,248.971436 552.406065,248.670395 551.768925,248.936183 Z M518.954813,263.923919 C516.864592,264.963806 514.781054,266.017147 512.704315,267.083869 C512.090232,267.399295 511.848122,268.15281 512.163548,268.766894 C512.478973,269.380977 513.232489,269.623087 513.846572,269.307661 C515.913777,268.245836 517.987749,267.197331 520.06837,266.16222 C520.68646,265.85472 520.938242,265.104381 520.630742,264.486291 C520.323242,263.868201 519.572903,263.616419 518.954813,263.923919 Z M487.195042,281.058707 C485.173831,282.237039 483.160103,283.42839 481.153977,284.632678 C480.562081,284.987996 480.370297,285.755864 480.725615,286.34776 C481.080933,286.939655 481.848802,287.131439 482.440697,286.776121 C484.437658,285.577335 486.442183,284.391429 488.454155,283.218484 C489.050561,282.870789 489.252182,282.105445 488.904487,281.509039 C488.556793,280.912633 487.791448,280.711013 487.195042,281.058707 Z M456.591603,300.28017 C454.653604,301.588346 452.723839,302.908973 450.802428,304.241959 C450.235207,304.635471 450.094388,305.414299 450.4879,305.98152 C450.881412,306.548741 451.66024,306.68956 452.227461,306.296049 C454.140135,304.969123 456.061122,303.654504 457.990305,302.352278 C458.562502,301.966037 458.713249,301.18907 458.327009,300.616873 C457.940768,300.044676 457.1638,299.893929 456.591603,300.28017 Z M427.37141,321.430724 C425.522822,322.863288 423.683217,324.307701 421.85271,325.763866 C421.312448,326.193643 421.222883,326.980015 421.65266,327.520277 C422.082437,328.060538 422.868809,328.150104 423.409071,327.720327 C425.23129,326.270756 427.062564,324.832884 428.902778,323.406809 C429.448459,322.983933 429.548012,322.198763 429.125136,321.653082 C428.702261,321.107401 427.917091,321.007848 427.37141,321.430724 Z M399.621393,344.422416 C397.871702,345.970918 396.131693,347.530594 394.40148,349.101344 C393.890338,349.565376 393.852149,350.35591 394.316181,350.867052 C394.780213,351.378193 395.570747,351.416382 396.081889,350.95235 C397.804296,349.388688 399.536452,347.83605 401.278247,346.294537 C401.795219,345.837009 401.843408,345.047021 401.385881,344.53005 C400.928353,344.013078 400.138365,343.964888 399.621393,344.422416 Z M373.392054,369.204037 C371.747513,370.862284 370.113334,372.531005 368.489624,374.210093 C368.009721,374.706363 368.022989,375.497708 368.51926,375.977612 C369.01553,376.457515 369.806875,376.444246 370.286778,375.947976 C371.90318,374.276445 373.530003,372.615235 375.167141,370.964452 C375.653267,370.474275 375.649982,369.682826 375.159805,369.196701 C374.669629,368.710575 373.878179,368.71386 373.392054,369.204037 Z M348.845568,395.616567 C347.310808,397.379343 345.787079,399.151886 344.274481,400.934084 C343.827762,401.460425 343.892308,402.249244 344.418649,402.695963 C344.944989,403.142681 345.733808,403.078135 346.180527,402.551795 C347.686327,400.777607 349.203208,399.01303 350.731069,397.258178 C351.184387,396.737511 351.129791,395.94794 350.609124,395.494622 C350.088457,395.041304 349.298886,395.095901 348.845568,395.616567 Z M326.030147,423.606384 C324.611244,425.467269 323.204009,427.337195 321.808538,429.216045 C321.396909,429.770258 321.512497,430.553229 322.06671,430.964858 C322.620924,431.376487 323.403894,431.260899 323.815523,430.706685 C325.204725,428.836276 326.605638,426.974751 328.018167,425.122226 C328.436755,424.573249 328.331055,423.788883 327.782078,423.370295 C327.233102,422.951707 326.448736,423.057407 326.030147,423.606384 Z M305.090302,452.998963 C303.794963,454.947992 302.511858,456.905293 301.241073,458.870749 C300.86624,459.450483 301.032345,460.224312 301.612079,460.599145 C302.191813,460.973978 302.965643,460.807873 303.340476,460.228139 C304.605549,458.271517 305.882888,456.323013 307.172405,454.382744 C307.554525,453.807787 307.3982,453.031922 306.823243,452.649802 C306.248287,452.267682 305.472422,452.424006 305.090302,452.998963 Z M286.096273,483.694759 C284.932172,485.720166 283.780767,487.753039 282.642139,489.79326 C282.305705,490.39609 282.521662,491.157513 283.124492,491.493947 C283.727321,491.830381 284.488745,491.614424 284.825179,491.011594 C285.958684,488.980552 287.104909,486.956824 288.263774,484.940529 C288.607784,484.341991 288.401447,483.577904 287.802909,483.233894 C287.20437,482.889884 286.440283,483.096221 286.096273,483.694759 Z M269.140006,515.548685 C268.109849,517.645466 267.092837,519.748933 266.089041,521.858969 C265.792471,522.482377 266.057425,523.228167 266.680833,523.524737 C267.304241,523.821307 268.05003,523.556353 268.346601,522.932945 C269.345875,520.832413 270.358306,518.73842 271.383824,516.651082 C271.688243,516.031469 271.432727,515.282393 270.813114,514.977974 C270.193501,514.673556 269.444425,514.929071 269.140006,515.548685 Z M254.279912,548.459176 C253.387472,550.620583 252.508586,552.78791 251.643318,554.961041 C251.38794,555.602425 251.70086,556.329394 252.342244,556.584772 C252.983628,556.840149 253.710597,556.527229 253.965975,555.885845 C254.827343,553.722511 255.702267,551.564953 256.590684,549.413289 C256.854155,548.775186 256.550457,548.044317 255.912355,547.780846 C255.274253,547.517375 254.543383,547.821073 254.279912,548.459176 Z M241.606381,582.226364 C240.856079,584.441934 240.119656,586.662658 239.397166,588.888423 C239.184023,589.545052 239.543538,590.250142 240.200167,590.463285 C240.856796,590.676429 241.561885,590.316913 241.775029,589.660285 C242.494262,587.444551 243.227366,585.233837 243.974286,583.028254 C244.195722,582.374375 243.845157,581.664792 243.191279,581.443356 C242.5374,581.221921 241.827817,581.572485 241.606381,582.226364 Z M231.140675,616.796343 C230.536068,619.056162 229.945585,621.320382 229.369271,623.588896 C229.199286,624.257997 229.6039,624.938211 230.273001,625.108196 C230.942102,625.27818 231.622316,624.873567 231.792301,624.204465 C232.366021,621.94616 232.953847,619.69213 233.555732,617.442483 C233.734159,616.775583 233.338173,616.090311 232.671274,615.911884 C232.004374,615.733457 231.319102,616.129443 231.140675,616.796343 Z M222.966709,651.85922 C222.509891,654.151876 222.067343,656.448201 221.639104,658.748093 C221.512732,659.426784 221.960475,660.079417 222.639166,660.205789 C223.317857,660.332161 223.970489,659.884418 224.096861,659.205727 C224.52318,656.916147 224.963743,654.63012 225.418512,652.347749 C225.553416,651.670702 225.113922,651.012486 224.436875,650.877583 C223.759828,650.742679 223.101612,651.182173 222.966709,651.85922 Z M217.075978,687.36012 C216.767835,689.676468 216.474041,691.995788 216.194626,694.317984 C216.112155,695.003396 216.600936,695.625888 217.286348,695.708359 C217.97176,695.790831 218.594252,695.30205 218.676723,694.616638 C218.954893,692.30479 219.247378,689.995808 219.554146,687.689789 C219.645182,687.005462 219.164224,686.376906 218.479896,686.28587 C217.795569,686.194835 217.167013,686.675793 217.075978,687.36012 Z M213.465379,723.309236 C213.306475,725.640955 213.161937,727.974985 213.03179,730.311237 C212.993392,731.000525 213.521041,731.59043 214.210329,731.628829 C214.899616,731.667227 215.489522,731.139578 215.52792,730.45029 C215.657492,728.124351 215.801392,725.800629 215.959594,723.479214 C216.006532,722.790456 215.486234,722.194056 214.797476,722.147118 C214.108717,722.10018 213.512317,722.620478 213.465379,723.309236 Z M212.157673,759.336661 C212.153561,760.221135 212.151497,761.105853 212.151483,761.99081 C212.151482,763.447474 212.156966,764.895464 212.167955,766.343932 C212.173193,767.034268 212.737067,767.58965 213.427403,767.584412 C214.117739,767.579175 214.673121,767.015301 214.667884,766.324965 C214.656943,764.882825 214.651482,763.441157 214.651483,761.990831 C214.651497,761.109755 214.653552,760.228898 214.657646,759.348285 C214.660856,758.657937 214.103821,758.095697 213.413472,758.092487 C212.723124,758.089276 212.160884,758.646312 212.157673,759.336661 Z M213.129172,795.390744 C213.266167,797.723494 213.417516,800.053998 213.583195,802.382165 C213.632198,803.07078 214.230156,803.589287 214.918771,803.540283 C215.607385,803.491279 216.125892,802.893322 216.076889,802.204707 C215.911942,799.886833 215.761262,797.566627 215.624872,795.24418 C215.5844,794.555012 214.992909,794.029139 214.30374,794.069612 C213.614572,794.110085 213.0887,794.701575 213.129172,795.390744 Z M216.395285,831.329145 C216.682466,833.657808 216.984115,835.983547 217.3002,838.306263 C217.393289,838.990314 218.023285,839.469383 218.707336,839.376295 C219.391387,839.283206 219.870457,838.65321 219.777368,837.969159 C219.462693,835.656804 219.162389,833.341436 218.876488,831.023152 C218.791991,830.337987 218.168056,829.85105 217.482891,829.935547 C216.797725,830.020044 216.310788,830.643979 216.395285,831.329145 Z M221.966531,866.994972 C222.403319,869.300014 222.854491,871.601434 223.320008,873.899128 C223.45709,874.575737 224.116718,875.01311 224.793327,874.876027 C225.469936,874.738945 225.907308,874.079318 225.770226,873.402709 C225.306798,871.115325 224.857649,868.824229 224.42282,866.529524 C224.29429,865.851238 223.640237,865.405573 222.961951,865.534103 C222.283666,865.662633 221.838001,866.316686 221.966531,866.994972 Z M229.821999,902.180957 C230.404746,904.443588 231.001602,906.701904 231.612522,908.955795 C231.793127,909.622109 232.47969,910.015853 233.146003,909.835248 C233.812316,909.654643 234.20606,908.96808 234.025455,908.301767 C233.417286,906.058022 232.823116,903.809872 232.242992,901.557424 C232.070808,900.888885 231.389268,900.48651 230.720729,900.658694 C230.052191,900.830878 229.649815,901.512419 229.821999,902.180957 Z M239.960224,936.836569 C240.691702,939.065168 241.437163,941.288662 242.196555,943.50694 C242.420149,944.160084 243.130885,944.508304 243.784029,944.284711 C244.437173,944.061117 244.785393,943.350381 244.561799,942.697237 C243.805831,940.488958 243.063729,938.275486 242.335549,936.056933 C242.120258,935.401005 241.413996,935.043798 240.758069,935.259088 C240.102141,935.474379 239.744934,936.180641 239.960224,936.836569 Z M252.309779,970.704937 C253.183229,972.878132 254.070316,975.045469 254.970976,977.206832 C255.236521,977.844074 255.968374,978.145394 256.605616,977.879849 C257.242858,977.614305 257.544178,976.882452 257.278633,976.24521 C256.382033,974.093589 255.498945,971.936021 254.629432,969.772622 C254.371981,969.132068 253.644003,968.821502 253.003448,969.078953 C252.362894,969.336405 252.052328,970.064383 252.309779,970.704937 Z M266.849484,1003.733 C267.860755,1005.84144 268.885242,1007.94327 269.922875,1010.03837 C270.229268,1010.65701 270.979154,1010.91014 271.597794,1010.60374 C272.216434,1010.29735 272.46956,1009.54746 272.163168,1008.92882 C271.130208,1006.84316 270.110335,1004.7508 269.103618,1002.65185 C268.805068,1002.02939 268.05844,1001.76681 267.435978,1002.06536 C266.813516,1002.36391 266.550934,1003.11054 266.849484,1003.733 Z M283.515934,1035.76652 C284.664709,1037.80945 285.826316,1039.84495 287.000676,1041.87289 C287.346634,1042.4703 288.111388,1042.67415 288.708803,1042.32819 C289.306219,1041.98223 289.510066,1041.21748 289.164108,1040.62007 C287.995031,1038.60125 286.838649,1036.57491 285.695043,1034.54117 C285.356671,1033.93943 284.594557,1033.72592 283.992813,1034.06429 C283.391068,1034.40267 283.177563,1035.16478 283.515934,1035.76652 Z M302.231198,1066.65515 C303.509555,1068.6182 304.800226,1070.57305 306.103126,1072.51957 C306.487131,1073.09327 307.263504,1073.24705 307.837204,1072.86304 C308.410904,1072.47904 308.564682,1071.70267 308.180677,1071.12897 C306.883633,1069.19119 305.598762,1067.24513 304.326151,1065.2909 C303.949424,1064.71239 303.175055,1064.54882 302.59655,1064.92555 C302.018045,1065.30227 301.854471,1066.07664 302.231198,1066.65515 Z M322.872791,1096.21208 C324.275956,1098.08871 325.690884,1099.95636 327.11748,1101.8149 C327.537832,1102.36253 328.322534,1102.46571 328.870161,1102.04536 C329.417789,1101.625 329.520967,1100.8403 329.100615,1100.29268 C327.680428,1098.44248 326.271857,1096.58322 324.874995,1094.71502 C324.461595,1094.16213 323.678258,1094.04904 323.125365,1094.46245 C322.572472,1094.87585 322.45939,1095.65918 322.872791,1096.21208 Z M345.362894,1124.34441 C346.883095,1126.12464 348.41443,1127.89516 349.956799,1129.65585 C350.411696,1130.17514 351.20143,1130.22733 351.720717,1129.77244 C352.240004,1129.31754 352.292203,1128.52781 351.837305,1128.00852 C350.301869,1126.25575 348.777417,1124.49319 347.264049,1122.72095 C346.815743,1122.19596 346.026732,1122.1338 345.501743,1122.5821 C344.976754,1123.03041 344.914589,1123.81942 345.362894,1124.34441 Z M369.695113,1151.03263 C371.326726,1152.7094 372.96881,1154.37574 374.621258,1156.03153 C375.108919,1156.52018 375.900375,1156.52098 376.389024,1156.03332 C376.877673,1155.54565 376.878473,1154.7542 376.390811,1154.26555 C374.745803,1152.61721 373.111111,1150.95838 371.486842,1149.28915 C371.005394,1148.79438 370.214012,1148.78358 369.71924,1149.26503 C369.224467,1149.74647 369.213665,1150.53786 369.695113,1151.03263 Z M395.688948,1176.06379 C397.427237,1177.63196 399.175322,1179.18899 400.933091,1180.73477 C401.451506,1181.19066 402.241337,1181.13997 402.69723,1180.62156 C403.153122,1180.10315 403.102438,1179.31331 402.584023,1178.85742 C400.834188,1177.31862 399.093993,1175.76862 397.363549,1174.20753 C396.850956,1173.7451 396.060545,1173.78577 395.598117,1174.29836 C395.135689,1174.81095 395.176355,1175.60136 395.688948,1176.06379 Z M423.257106,1199.34961 C425.090541,1200.79841 426.933019,1202.23545 428.784426,1203.66064 C429.331472,1204.08175 430.116316,1203.97965 430.537424,1203.43261 C430.958532,1202.88556 430.856438,1202.10072 430.309392,1201.67961 C428.466373,1200.26088 426.63224,1198.83035 424.807109,1197.38811 C424.265455,1196.96009 423.479378,1197.05221 423.051356,1197.59386 C422.623335,1198.13551 422.715452,1198.92159 423.257106,1199.34961 Z M452.269647,1220.77241 C454.194767,1222.09874 456.128197,1223.41269 458.069821,1224.71416 C458.643268,1225.09855 459.419742,1224.94528 459.804125,1224.37183 C460.188509,1223.79839 460.035242,1223.02191 459.461796,1222.63753 C457.529007,1221.34197 455.604372,1220.034 453.688008,1218.71371 C453.119513,1218.32204 452.341146,1218.46538 451.949477,1219.03388 C451.557807,1219.60237 451.701152,1220.38074 452.269647,1220.77241 Z M482.678031,1240.27886 C484.688351,1241.47681 486.706237,1242.66179 488.73157,1243.83372 C489.329103,1244.17947 490.093788,1243.97537 490.439542,1243.37783 C490.785297,1242.7803 490.58119,1242.01562 489.983657,1241.66986 C487.967584,1240.50329 485.958922,1239.32372 483.957789,1238.13125 C483.364743,1237.77786 482.597501,1237.97213 482.244106,1238.56518 C481.89071,1239.15822 482.084985,1239.92546 482.678031,1240.27886 Z M514.256108,1257.71008 C516.341838,1258.773 518.434368,1259.82244 520.533579,1260.85833 C521.152661,1261.16383 521.902181,1260.90962 522.207678,1260.29054 C522.513176,1259.67146 522.258965,1258.92194 521.639883,1258.61644 C519.550315,1257.5853 517.467395,1256.54068 515.391242,1255.48264 C514.776152,1255.16918 514.023415,1255.4137 513.709957,1256.02879 C513.396498,1256.64388 513.641018,1257.39662 514.256108,1257.71008 Z M546.949805,1273.02613 C549.10059,1273.94781 551.257394,1274.8556 553.4201,1275.74942 C554.058114,1276.01311 554.789085,1275.70965 555.05277,1275.07164 C555.316454,1274.43362 555.013001,1273.70265 554.374987,1273.43897 C552.222256,1272.54927 550.075398,1271.64567 547.934529,1270.72823 C547.299983,1270.45631 546.565144,1270.75027 546.29322,1271.38482 C546.021296,1272.01936 546.315259,1272.7542 546.949805,1273.02613 Z M580.614235,1286.14168 C582.820611,1286.91749 585.03223,1287.67905 587.248976,1288.42632 C587.903162,1288.64685 588.612257,1288.2953 588.832784,1287.64111 C589.053311,1286.98693 588.701761,1286.27783 588.047575,1286.0573 C585.841081,1285.31349 583.63969,1284.55545 581.443517,1283.78323 C580.792248,1283.55423 580.07865,1283.89654 579.84965,1284.54781 C579.62065,1285.19908 579.962966,1285.91268 580.614235,1286.14168 Z M615.049216,1296.97168 C617.301335,1297.59811 619.557933,1298.21002 621.818901,1298.80738 C622.486355,1298.98372 623.170388,1298.5856 623.346732,1297.91815 C623.523076,1297.25069 623.124953,1296.56666 622.4575,1296.39032 C620.206999,1295.79572 617.960847,1295.18664 615.719154,1294.56312 C615.054047,1294.37812 614.364901,1294.76733 614.179903,1295.43243 C613.994904,1296.09754 614.384109,1296.78669 615.049216,1296.97168 Z M649.994101,1305.44916 C652.283313,1305.92447 654.576272,1306.38506 656.872872,1306.8309 C657.550576,1306.96247 658.206617,1306.51973 658.338181,1305.84203 C658.469744,1305.16433 658.027011,1304.50829 657.349307,1304.37672 C655.063321,1303.93294 652.780961,1303.47447 650.502331,1303.00137 C649.826391,1302.86102 649.164662,1303.29521 649.024319,1303.97115 C648.883975,1304.64709 649.318161,1305.30882 649.994101,1305.44916 Z M685.498921,1311.59615 C687.813662,1311.91809 690.131439,1312.22521 692.452151,1312.51749 C693.137096,1312.60375 693.762285,1312.11843 693.84855,1311.43348 C693.934815,1310.74854 693.449489,1310.12335 692.764544,1310.03708 C690.454505,1309.74615 688.147392,1309.44044 685.843304,1309.11999 C685.159529,1309.02489 684.528128,1309.5021 684.433029,1310.18588 C684.33793,1310.86965 684.815146,1311.50106 685.498921,1311.59615 Z M721.413884,1315.38164 C723.745267,1315.54961 726.079011,1315.70274 728.415023,1315.84101 C729.104173,1315.8818 729.695906,1315.3562 729.736695,1314.66705 C729.777484,1313.9779 729.251884,1313.38616 728.562734,1313.34538 C726.237374,1313.20774 723.914277,1313.05531 721.593536,1312.88811 C720.904965,1312.8385 720.306551,1313.35648 720.256942,1314.04505 C720.207332,1314.73362 720.725313,1315.33203 721.413884,1315.38164 Z M757.478235,1316.79146 C758.651723,1316.79891 759.825648,1316.80264 761,1316.80264 C761.690356,1316.80264 762.25,1316.243 762.25,1315.55264 C762.25,1314.86228 761.690356,1314.30264 761,1314.30264 C759.830942,1314.30264 758.662309,1314.29893 757.494114,1314.29151 C756.803772,1314.28712 756.240585,1314.8432 756.2362,1315.53354 C756.231815,1316.22388 756.787893,1316.78707 757.478235,1316.79146 Z" id="circle-5"></path>
            </g>
        </g>
    </g>
</svg>