<?xml version="1.0" encoding="UTF-8" standalone="no"?>
<svg width="916px" height="916px" viewBox="0 0 916 916" version="1.1" xmlns="http://www.w3.org/2000/svg" xmlns:xlink="http://www.w3.org/1999/xlink">
    <!-- Generator: Sketch 41.2 (35397) - http://www.bohemiancoding.com/sketch -->
    <title>circle-4</title>
    <desc>Created with Sketch.</desc>
    <defs></defs>
    <g id="Page-1" stroke="none" stroke-width="1" fill="none" fill-rule="evenodd">
        <g id="1.1---intro" transform="translate(-182.000000, -5909.000000)" fill="#292F6E">
            <g id="7" transform="translate(-121.000000, 5605.000000)">
                <path d="M761,1219.25 C774.442951,1219.25 787.815603,1218.66986 801.093406,1217.51639 C801.781172,1217.45664 802.290281,1216.85066 802.230533,1216.1629 C802.170785,1215.47513 801.564806,1214.96602 800.87704,1215.02577 C787.671166,1216.173 774.370704,1216.75 761,1216.75 C760.309644,1216.75 759.75,1217.30964 759.75,1218 C759.75,1218.69036 760.309644,1219.25 761,1219.25 Z M935.952088,1184.58547 C948.312682,1179.46242 960.435114,1173.79826 972.287367,1167.61168 C972.899367,1167.29224 973.136527,1166.53715 972.817079,1165.92515 C972.49763,1165.31315 971.742542,1165.07599 971.130542,1165.39544 C959.343345,1171.54805 947.287513,1177.1811 934.994882,1182.27597 C934.357134,1182.5403 934.054414,1183.27157 934.318739,1183.90932 C934.583064,1184.54707 935.314339,1184.84979 935.952088,1184.58547 Z M1084.2185,1085.43062 C1093.68094,1075.97434 1102.72731,1066.10906 1111.32934,1055.86494 C1111.77328,1055.33625 1111.70458,1054.54778 1111.1759,1054.10384 C1110.64721,1053.6599 1109.85874,1053.7286 1109.4148,1054.25729 C1100.85954,1064.44572 1091.86233,1074.25738 1082.45131,1083.66227 C1081.963,1084.15027 1081.96274,1084.94172 1082.45073,1085.43004 C1082.93873,1085.91835 1083.73019,1085.91861 1084.2185,1085.43062 Z M1183.4854,937.193336 C1188.61049,924.847851 1193.19204,912.273156 1197.2143,899.500416 C1197.42166,898.841938 1197.05596,898.140038 1196.39748,897.932677 C1195.739,897.725316 1195.0371,898.091019 1194.82974,898.749496 C1190.82965,911.45186 1186.27334,923.957286 1181.17645,936.234803 C1180.91176,936.8724 1181.21406,937.603849 1181.85166,937.868541 C1182.48926,938.133233 1183.2207,937.830933 1183.4854,937.193336 Z M1218.2499,762.30052 C1218.24998,762.150268 1218.24998,762.150268 1218.25,762 C1218.25,748.663909 1217.67905,735.396978 1216.54378,722.223167 C1216.48451,721.53536 1215.87888,721.025833 1215.19107,721.085105 C1214.50327,721.144378 1213.99374,721.750006 1214.05301,722.437812 C1215.18213,735.540262 1215.75,748.73558 1215.75,762 C1215.74998,762.149463 1215.74998,762.149463 1215.7499,762.298912 C1215.74946,762.989268 1216.30874,763.549272 1216.9991,763.549716 C1217.68946,763.55016 1218.24946,762.990876 1218.2499,762.30052 Z M1183.70205,587.329456 C1178.5883,574.967859 1172.93349,562.844018 1166.7563,550.989926 C1166.43727,550.377707 1165.68235,550.140029 1165.07013,550.459057 C1164.45791,550.778086 1164.22023,551.533011 1164.53926,552.14523 C1170.68254,563.934254 1176.30628,575.991486 1181.39191,588.285113 C1181.65581,588.923039 1182.38688,589.226249 1183.02481,588.962352 C1183.66273,588.698454 1183.96594,587.967382 1183.70205,587.329456 Z M1084.64259,438.99375 C1075.19458,429.52724 1065.33746,420.476347 1055.10138,411.869334 C1054.57299,411.425039 1053.78448,411.49321 1053.34018,412.021597 C1052.89589,412.549985 1052.96406,413.3385 1053.49245,413.782794 C1063.67288,422.343014 1073.47642,431.344719 1082.8731,440.759788 C1083.36077,441.24842 1084.15223,441.249194 1084.64086,440.761517 C1085.12949,440.273839 1085.13027,439.482383 1084.64259,438.99375 Z M936.474705,339.631522 C924.135147,334.49918 911.566159,329.910024 898.798897,325.87981 C898.140563,325.671995 897.43841,326.037213 897.230595,326.695547 C897.02278,327.353882 897.387998,328.056035 898.046333,328.26385 C910.743249,332.271858 923.243,336.835734 935.514624,341.93982 C936.152043,342.20494 936.883695,341.903131 937.148814,341.265712 C937.413933,340.628292 937.112124,339.896641 936.474705,339.631522 Z M761.624107,304.750417 C761.312086,304.750069 761.312086,304.750069 761,304.75 C747.770777,304.75 734.609583,305.311836 721.539802,306.429044 C720.851954,306.487842 720.342008,307.093117 720.400806,307.780965 C720.459603,308.468812 721.064878,308.978758 721.752726,308.919961 C734.751716,307.808804 747.841871,307.25 761,307.25 C761.310416,307.250069 761.310416,307.250069 761.620767,307.250415 C762.311122,307.251337 762.871513,306.692441 762.872436,306.002086 C762.873358,305.31173 762.314462,304.751339 761.624107,304.750417 Z M586.611095,339.181556 C574.238433,344.290162 562.103511,349.940651 550.238377,356.114326 C549.625962,356.432978 549.38782,357.187757 549.706473,357.800172 C550.025125,358.412587 550.779904,358.650729 551.392319,358.332077 C563.192323,352.19229 575.260572,346.572846 587.565202,341.492331 C588.203304,341.228861 588.507005,340.497993 588.243536,339.85989 C587.980066,339.221787 587.249198,338.918086 586.611095,339.181556 Z M438.236493,438.115321 C428.763912,447.555315 419.706553,457.404641 411.092689,467.633193 C410.647995,468.161245 410.715571,468.949811 411.243623,469.394504 C411.771675,469.839198 412.560241,469.771622 413.004935,469.24357 C421.57197,459.070626 430.580105,449.274828 440.001212,439.886131 C440.490208,439.398818 440.491571,438.607363 440.004258,438.118367 C439.516944,437.629371 438.725489,437.628008 438.236493,438.115321 Z M338.748621,586.244021 C333.607689,598.580896 329.009864,611.14754 324.970929,623.912783 C324.762675,624.570978 325.127425,625.273374 325.785621,625.481628 C326.443817,625.689882 327.146213,625.325132 327.354467,624.666936 C331.371148,611.972027 335.943646,599.474607 341.056276,587.20565 C341.321822,586.568409 341.020504,585.836555 340.383263,585.571008 C339.746022,585.305462 339.014168,585.60678 338.748621,586.244021 Z M303.750961,761.052359 C303.750327,761.364761 303.750007,761.677199 303.75,761.989673 C303.75,775.121043 304.302687,788.176511 305.402083,801.143502 C305.460405,801.83139 306.065328,802.341754 306.753216,802.283432 C307.441104,802.22511 307.951468,801.620188 307.893146,800.9323 C306.799704,788.035537 306.25,775.050533 306.25,761.989701 C306.250007,761.678926 306.250326,761.36816 306.250956,761.057431 C306.252356,760.367076 305.693849,759.806298 305.003494,759.804898 C304.31314,759.803497 303.752362,760.362005 303.750961,761.052359 Z M338.048753,936.066917 C343.147313,948.442137 348.787812,960.580027 354.951583,972.448553 C355.269761,973.061215 356.024356,973.299941 356.637017,972.981762 C357.249679,972.663584 357.488405,971.90899 357.170226,971.296328 C351.040291,959.492953 345.430783,947.421754 340.360259,935.114582 C340.097279,934.476277 339.366643,934.172016 338.728338,934.434996 C338.090034,934.697976 337.785773,935.428612 338.048753,936.066917 Z M436.903642,1084.55096 C446.340396,1094.03264 456.18701,1103.09912 466.413365,1111.72207 C466.941139,1112.16709 467.729747,1112.10001 468.174771,1111.57224 C468.619794,1111.04446 468.552712,1110.25585 468.024938,1109.81083 C457.854178,1101.23476 448.061077,1092.21756 438.675603,1082.7874 C438.188608,1082.29808 437.397154,1082.2962 436.907841,1082.7832 C436.418527,1083.27019 436.416648,1084.06165 436.903642,1084.55096 Z M584.962842,1184.1341 C597.296961,1189.28359 609.861184,1193.89006 622.62433,1197.9377 C623.282387,1198.14639 623.985026,1197.78211 624.193719,1197.12405 C624.402412,1196.466 624.03813,1195.76336 623.380074,1195.55466 C610.68725,1191.52933 598.192235,1186.94823 585.926018,1181.82709 C585.288955,1181.56111 584.556899,1181.86194 584.290925,1182.499 C584.024952,1183.13607 584.325779,1183.86812 584.962842,1184.1341 Z M759.728878,1219.24827 C760.145393,1219.2494 760.561974,1219.24998 760.978619,1219.25 C761.668975,1219.25003 762.228645,1218.69041 762.228676,1218.00006 C762.228708,1217.3097 761.66909,1216.75003 760.978734,1216.75 C760.564318,1216.74998 760.149967,1216.74941 759.735681,1216.74828 C759.045327,1216.7464 758.484163,1217.30452 758.482284,1217.99487 C758.480405,1218.68523 759.038524,1219.24639 759.728878,1219.24827 Z" id="circle-4"></path>
            </g>
        </g>
    </g>
</svg>