<?xml version="1.0" encoding="UTF-8" standalone="no"?>
<svg width="1280px" height="1387px" viewBox="0 0 1280 1387" version="1.1" xmlns="http://www.w3.org/2000/svg" xmlns:xlink="http://www.w3.org/1999/xlink">
    <!-- Generator: Sketch 41.2 (35397) - http://www.bohemiancoding.com/sketch -->
    <title>circle-7</title>
    <desc>Created with Sketch.</desc>
    <defs></defs>
    <g id="Page-1" stroke="none" stroke-width="1" fill="none" fill-rule="evenodd">
        <g id="1.1---intro" transform="translate(0.000000, -5674.000000)" fill="#292F6E">
            <g id="7" transform="translate(-121.000000, 5605.000000)">
                <path d="M761,1455.25 C787.875923,1455.25 814.563548,1453.7206 840.976608,1450.68649 C841.662453,1450.60771 842.154574,1449.98785 842.07579,1449.30201 C841.997006,1448.61616 841.377151,1448.12404 840.691305,1448.20282 C814.372908,1451.22606 787.780538,1452.75 761,1452.75 C760.309644,1452.75 759.75,1453.30964 759.75,1454 C759.75,1454.69036 760.309644,1455.25 761,1455.25 Z M1000.45093,1412.78388 C1025.54597,1403.54737 1050.05926,1392.86398 1073.88047,1380.79551 C1074.4963,1380.48351 1074.74261,1379.73136 1074.43061,1379.11553 C1074.11862,1378.49969 1073.36646,1378.25339 1072.75063,1378.56538 C1049.01572,1390.59013 1024.59135,1401.23477 999.587408,1410.43775 C998.939541,1410.6762 998.607647,1411.39471 998.846102,1412.04258 C999.084556,1412.69044 999.803061,1413.02234 1000.45093,1412.78388 Z M1210.31698,1289.94762 C1230.65957,1272.618 1249.99342,1254.12888 1268.21535,1234.58001 C1268.68607,1234.07502 1268.65828,1233.28405 1268.15329,1232.81334 C1267.6483,1232.34262 1266.85733,1232.37041 1266.38661,1232.8754 C1248.22998,1252.3542 1228.96543,1270.77706 1208.69578,1288.04454 C1208.17026,1288.49223 1208.10716,1289.28117 1208.55484,1289.80669 C1209.00253,1290.3322 1209.79146,1290.3953 1210.31698,1289.94762 Z M1365.13823,1102.26732 C1378.27062,1079.00097 1390.0492,1054.98642 1400.40679,1030.33514 C1400.6742,1029.69868 1400.37504,1028.96594 1399.73858,1028.69852 C1399.10212,1028.43111 1398.36938,1028.73027 1398.10197,1029.36673 C1387.78193,1053.92866 1376.04599,1077.85625 1362.9611,1101.03846 C1362.62176,1101.63966 1362.83404,1102.40212 1363.43523,1102.74146 C1364.03643,1103.0808 1364.79889,1102.86852 1365.13823,1102.26732 Z M1445.44678,872.777861 C1449.6663,846.504231 1452.38217,819.907327 1453.56583,793.07758 C1453.59626,792.387895 1453.06182,791.804128 1452.37214,791.773701 C1451.68245,791.743274 1451.09869,792.277708 1451.06826,792.967393 C1449.88883,819.701169 1447.18272,846.202505 1442.97841,872.381443 C1442.86894,873.063065 1443.33276,873.70437 1444.01438,873.813837 C1444.696,873.923305 1445.33731,873.459483 1445.44678,872.777861 Z M1441.62207,629.606015 C1436.53674,603.309173 1429.93862,577.404199 1421.87092,551.993286 C1421.66202,551.335296 1420.95926,550.971241 1420.30127,551.180146 C1419.64328,551.38905 1419.27923,552.091807 1419.48813,552.749796 C1427.52651,578.068373 1434.10067,603.879242 1439.16754,630.080675 C1439.29861,630.758474 1439.95433,631.201682 1440.63213,631.070608 C1441.30993,630.939534 1441.75314,630.283814 1441.62207,629.606015 Z M1354.0038,402.719174 C1340.13212,379.872466 1324.94855,357.843735 1308.53739,336.74396 C1308.11355,336.199029 1307.32821,336.100866 1306.78328,336.524707 C1306.23835,336.948548 1306.14018,337.733893 1306.56402,338.278825 C1322.91619,359.302764 1338.04514,381.252241 1351.86685,404.016651 C1352.22514,404.606753 1352.99397,404.794676 1353.58407,404.436387 C1354.17417,404.078099 1354.36209,403.309276 1354.0038,402.719174 Z M1193.36363,220.065311 C1172.48193,203.383751 1150.656,187.916783 1127.99641,173.750106 C1127.41104,173.384135 1126.63983,173.561993 1126.27386,174.147362 C1125.90789,174.732732 1126.08574,175.503945 1126.67111,175.869915 C1149.24913,189.985589 1170.99657,205.396939 1191.80325,222.018569 C1192.34263,222.449456 1193.12918,222.361507 1193.56007,221.82213 C1193.99095,221.282753 1193.90301,220.496198 1193.36363,220.065311 Z M979.723042,103.960485 C954.410827,95.5512385 928.588278,88.6072479 902.358555,83.1732316 C901.682554,83.0331842 901.021015,83.4676609 900.880968,84.1436625 C900.740921,84.819664 901.175397,85.4812023 901.851399,85.6212497 C927.985906,91.0355401 953.714622,97.954298 978.934848,106.332984 C979.589996,106.550637 980.297541,106.195979 980.515194,105.540831 C980.732848,104.885684 980.378189,104.178139 979.723042,103.960485 Z M739.034246,69.091402 C712.189737,69.9269801 685.564721,72.2938593 659.248383,76.1646687 C658.565376,76.2651306 658.09313,76.9002578 658.193592,77.5832649 C658.294054,78.266272 658.929181,78.7385182 659.612188,78.6380562 C685.833819,74.781177 712.363337,72.4227873 739.112025,71.5901918 C739.802047,71.5687138 740.344008,70.9919292 740.32253,70.3019075 C740.301052,69.6118857 739.724268,69.069924 739.034246,69.091402 Z M501.065572,119.128551 C476.275721,129.161665 452.106647,140.624128 428.669595,153.450291 C428.063994,153.781711 427.841728,154.541317 428.173149,155.146917 C428.50457,155.752517 429.264175,155.974784 429.869775,155.643363 C453.222025,142.86361 477.303537,131.442674 502.003484,121.445947 C502.643415,121.18695 502.952223,120.458224 502.693226,119.818293 C502.434229,119.178362 501.705503,118.869554 501.065572,119.128551 Z M295.138648,248.603709 C275.353402,266.567786 256.613091,285.657884 239.018514,305.771798 C238.563986,306.291409 238.616747,307.081105 239.136358,307.535633 C239.655969,307.990161 240.445664,307.9374 240.900192,307.417789 C258.431697,287.375979 277.104846,268.354295 296.819177,250.454607 C297.330288,249.990542 297.368426,249.200005 296.904361,248.688894 C296.440296,248.177783 295.649759,248.139644 295.138648,248.603709 Z M146.350566,441.067193 C133.966202,464.737183 122.958794,489.115943 113.391757,514.092684 C113.14482,514.737365 113.467255,515.460164 114.111936,515.707102 C114.756617,515.954039 115.479416,515.631604 115.726353,514.986923 C125.258672,490.100819 136.226173,465.810445 148.565691,442.226167 C148.885733,441.614477 148.649306,440.85916 148.037616,440.539118 C147.425926,440.219076 146.670608,440.455503 146.350566,441.067193 Z M73.4191983,672.927735 C70.03564,699.306767 68.1570537,725.974544 67.8092345,752.843542 C67.8002986,753.53384 68.3526518,754.100681 69.0429499,754.109617 C69.733248,754.118553 70.3000891,753.5662 70.309025,752.875902 C70.6556067,726.102503 72.5274734,699.530115 75.8988831,673.245797 C75.9867134,672.561051 75.5028175,671.934754 74.8180715,671.846924 C74.1333254,671.759093 73.5070286,672.242989 73.4191983,672.927735 Z M84.8946618,915.905299 C90.8137909,942.01772 98.2365898,967.701774 107.116304,992.853181 C107.346132,993.504158 108.060164,993.845566 108.711141,993.615739 C109.362118,993.385911 109.703527,992.671878 109.473699,992.020902 C100.626256,966.960901 93.2304366,941.370201 87.3328065,915.352623 C87.1801894,914.679348 86.5106715,914.257272 85.8373964,914.409889 C85.1641213,914.562506 84.7420446,915.232024 84.8946618,915.905299 Z M179.711028,1139.90281 C194.295426,1162.29074 210.163365,1183.82256 227.227198,1204.38837 C227.668018,1204.91966 228.456069,1204.993 228.987359,1204.55218 C229.518648,1204.11136 229.591988,1203.32331 229.151167,1202.79202 C212.148603,1182.30005 196.337687,1160.8456 181.805757,1138.53822 C181.428936,1137.95978 180.654541,1137.79633 180.076097,1138.17315 C179.497654,1138.54998 179.334207,1139.32437 179.711028,1139.90281 Z M345.982184,1317.34965 C367.37615,1333.36328 389.676318,1348.13238 412.77137,1361.57474 C413.368019,1361.92202 414.133222,1361.71986 414.480499,1361.12321 C414.827776,1360.52656 414.625619,1359.76136 414.02897,1359.41408 C391.017176,1346.02018 368.797299,1331.30426 347.480277,1315.34822 C346.927598,1314.93453 346.144203,1315.04721 345.730516,1315.59989 C345.316829,1316.15257 345.429505,1316.93596 345.982184,1317.34965 Z M563.23473,1426.63236 C588.791986,1434.22567 614.821328,1440.34208 641.221782,1444.94032 C641.901899,1445.05878 642.549271,1444.60347 642.667729,1443.92335 C642.786187,1443.24323 642.330872,1442.59586 641.650755,1442.4774 C615.345998,1437.89583 589.411159,1431.80163 563.946743,1424.23589 C563.284978,1424.03928 562.589122,1424.41635 562.392505,1425.07812 C562.195888,1425.73988 562.572965,1426.43574 563.23473,1426.63236 Z" id="circle-7"></path>
            </g>
        </g>
    </g>
</svg>