<?xml version="1.0" encoding="UTF-8" standalone="no"?>
<svg width="1200px" height="1214px" viewBox="0 0 1200 1214" version="1.1" xmlns="http://www.w3.org/2000/svg" xmlns:xlink="http://www.w3.org/1999/xlink">
    <!-- Generator: Sketch 41.2 (35397) - http://www.bohemiancoding.com/sketch -->
    <title>circle-6</title>
    <desc>Created with Sketch.</desc>
    <defs></defs>
    <g id="Page-1" stroke="none" stroke-width="1" fill="none" fill-rule="evenodd">
        <g id="1.1---intro" transform="translate(-40.000000, -5760.000000)" fill="#292F6E">
            <g id="7" transform="translate(-121.000000, 5605.000000)">
                <path d="M761,1368.29934 C762.000492,1368.29934 763.000701,1368.29687 764.000621,1368.29192 C764.690968,1368.2885 765.247834,1367.72609 765.244416,1367.03574 C765.240998,1366.34539 764.678589,1365.78853 763.988242,1365.79195 C762.992448,1365.79688 761.996365,1365.79934 761,1365.79934 C760.309644,1365.79934 759.75,1366.35899 759.75,1367.04934 C759.75,1367.7397 760.309644,1368.29934 761,1368.29934 Z M779.041443,1368.03029 C780.03645,1368.00058 781.031129,1367.9684 782.025475,1367.93378 C782.715413,1367.90975 783.255239,1367.33096 783.231212,1366.64103 C783.207184,1365.95109 782.6284,1365.41126 781.938463,1365.43529 C780.948245,1365.46978 779.957694,1365.50181 778.966817,1365.53141 C778.276769,1365.55201 777.73408,1366.12811 777.754687,1366.81816 C777.775295,1367.50821 778.351395,1368.0509 779.041443,1368.03029 Z M797.040373,1367.2228 C798.04778,1367.16244 799.054802,1367.09956 800.061431,1367.03414 C800.750334,1366.98938 801.272509,1366.39462 801.227743,1365.70572 C801.182976,1365.01681 800.588219,1364.49464 799.899316,1364.5394 C798.896889,1364.60455 797.89407,1364.66717 796.890866,1364.72727 C796.201745,1364.76856 795.676571,1365.36067 795.717857,1366.04979 C795.759142,1366.73891 796.351253,1367.26408 797.040373,1367.2228 Z M815.016752,1365.87381 C816.015521,1365.7837 817.013858,1365.69108 818.011756,1365.59596 C818.698998,1365.53046 819.203014,1364.92023 819.137509,1364.23299 C819.072004,1363.54575 818.461782,1363.04174 817.774541,1363.10724 C816.780825,1363.20196 815.786673,1363.29419 814.792089,1363.38393 C814.104527,1363.44597 813.597439,1364.05364 813.659478,1364.7412 C813.721517,1365.42877 814.329189,1365.93585 815.016752,1365.87381 Z M832.959892,1363.98055 C833.948686,1363.86104 834.937003,1363.73906 835.924836,1363.61463 C836.609779,1363.52835 837.09509,1362.90314 837.008808,1362.2182 C836.922526,1361.53326 836.297325,1361.04795 835.612382,1361.13423 C834.628704,1361.25814 833.644545,1361.37961 832.659909,1361.49861 C831.974542,1361.58145 831.486095,1362.20421 831.568933,1362.88957 C831.651771,1363.57494 832.274525,1364.06339 832.959892,1363.98055 Z M850.858778,1361.54045 C851.853878,1361.38933 852.848437,1361.2357 853.842447,1361.07956 C854.524441,1360.97243 854.990461,1360.33272 854.883332,1359.65073 C854.776204,1358.96873 854.136494,1358.50271 853.454501,1358.60984 C852.464683,1358.76532 851.47432,1358.91831 850.483417,1359.06879 C849.800887,1359.17245 849.331614,1359.80977 849.435268,1360.4923 C849.538921,1361.17483 850.176248,1361.64411 850.858778,1361.54045 Z M868.644418,1358.56178 C869.626464,1358.38189 870.607925,1358.19954 871.588793,1358.01473 C872.267211,1357.88691 872.713557,1357.23332 872.585732,1356.5549 C872.457908,1355.87648 871.804318,1355.43013 871.125899,1355.55796 C870.149178,1355.74199 869.171866,1355.92357 868.193969,1356.1027 C867.514912,1356.22708 867.065263,1356.87841 867.189651,1357.55746 C867.314039,1358.23652 867.96536,1358.68617 868.644418,1358.56178 Z M886.363977,1355.03533 C887.348208,1354.82377 888.331786,1354.60971 889.314704,1354.39316 C889.988893,1354.24463 890.415023,1353.57769 890.266492,1352.9035 C890.117962,1352.22931 889.451016,1351.80318 888.776828,1351.95171 C887.798069,1352.16734 886.818654,1352.38049 885.838589,1352.59116 C885.16365,1352.73624 884.734116,1353.401 884.879198,1354.07594 C885.02428,1354.75088 885.689038,1355.18041 886.363977,1355.03533 Z M903.949116,1350.97322 C904.917272,1350.73393 905.884733,1350.49222 906.851491,1350.24807 C907.520832,1350.07904 907.92641,1349.3994 907.757374,1348.73005 C907.588338,1348.06071 906.908699,1347.65514 906.239357,1347.82417 C905.276694,1348.06728 904.313331,1348.30798 903.349275,1348.54625 C902.679085,1348.71189 902.270068,1349.38947 902.43571,1350.05965 C902.601351,1350.72984 903.278926,1351.13886 903.949116,1350.97322 Z M921.389545,1346.37886 C922.355931,1346.10843 923.321555,1345.83555 924.286409,1345.56023 C924.950267,1345.3708 925.334867,1344.67907 925.145436,1344.01522 C924.956006,1343.35136 924.264279,1342.96676 923.600421,1343.15619 C922.639653,1343.43034 921.67812,1343.70206 920.715828,1343.97135 C920.051012,1344.15739 919.662889,1344.84715 919.848931,1345.51196 C920.034973,1346.17678 920.724729,1346.5649 921.389545,1346.37886 Z M938.67481,1341.25582 C939.637217,1340.95452 940.598796,1340.65077 941.559539,1340.34457 C942.217297,1340.13494 942.580574,1339.43178 942.370941,1338.77402 C942.161308,1338.11626 941.458149,1337.75299 940.800391,1337.96262 C939.843717,1338.26752 938.88621,1338.56999 937.927879,1338.87001 C937.269055,1339.07627 936.90218,1339.77756 937.108439,1340.43638 C937.314699,1341.09521 938.015987,1341.46208 938.67481,1341.25582 Z M955.794292,1335.60783 C956.736166,1335.28107 957.677173,1334.95193 958.617305,1334.62044 C959.268372,1334.39087 959.610062,1333.67697 959.380491,1333.0259 C959.150919,1332.37483 958.437021,1332.03314 957.785954,1332.26271 C956.8498,1332.59281 955.912775,1332.92055 954.974886,1333.24593 C954.322666,1333.4722 953.977366,1334.18436 954.203639,1334.83658 C954.429911,1335.4888 955.142071,1335.8341 955.794292,1335.60783 Z M972.7372,1329.43874 C973.671317,1329.08239 974.604504,1328.72369 975.536752,1328.36263 C976.180512,1328.1133 976.500263,1327.38931 976.250935,1326.74555 C976.001608,1326.10179 975.277617,1325.78204 974.633857,1326.03137 C973.705549,1326.3909 972.776306,1326.74809 971.846137,1327.10293 C971.201121,1327.34899 970.877703,1328.07135 971.123764,1328.71637 C971.369824,1329.36138 972.092184,1329.6848 972.7372,1329.43874 Z M989.492575,1322.75259 C990.416835,1322.36734 991.340102,1321.97976 992.262368,1321.58984 C992.898231,1321.32101 993.195769,1320.58761 992.926938,1319.95175 C992.658107,1319.31588 991.924708,1319.01835 991.288845,1319.28718 C990.370471,1319.67545 989.4511,1320.0614 988.530741,1320.44502 C987.893523,1320.71062 987.59227,1321.4425 987.857873,1322.07972 C988.123477,1322.71694 988.855358,1323.01819 989.492575,1322.75259 Z M1006.04929,1315.55355 C1006.96163,1315.14022 1007.87293,1314.72459 1008.78316,1314.30666 C1009.41055,1314.01859 1009.68562,1313.27648 1009.39756,1312.64909 C1009.10949,1312.02171 1008.36738,1311.74663 1007.73999,1312.0347 C1006.83359,1312.45087 1005.92614,1312.86475 1005.01763,1313.27634 C1004.3888,1313.56122 1004.10997,1314.30193 1004.39485,1314.93077 C1004.67974,1315.5596 1005.42045,1315.83843 1006.04929,1315.55355 Z M1022.34489,1307.87102 C1023.24344,1307.43062 1024.14089,1306.98796 1025.03721,1306.54303 C1025.65558,1306.23608 1025.90803,1305.48596 1025.60108,1304.8676 C1025.29412,1304.24923 1024.54401,1303.99679 1023.92565,1304.30374 C1023.03309,1304.74679 1022.13942,1305.1876 1021.24464,1305.62614 C1020.62474,1305.92997 1020.3685,1306.6788 1020.67233,1307.2987 C1020.97615,1307.91861 1021.72498,1308.17484 1022.34489,1307.87102 Z M1038.42079,1299.6874 C1039.30361,1299.22102 1040.18526,1298.75241 1041.06575,1298.28159 C1041.67453,1297.95605 1041.90415,1297.19863 1041.57861,1296.58985 C1041.25307,1295.98107 1040.49565,1295.75145 1039.88687,1296.07699 C1039.01008,1296.54584 1038.13213,1297.01248 1037.25301,1297.47691 C1036.6426,1297.79938 1036.40918,1298.55563 1036.73165,1299.16604 C1037.05413,1299.77645 1037.81038,1300.00987 1038.42079,1299.6874 Z M1054.26543,1291.00728 C1055.1418,1290.50978 1056.01692,1290.01006 1056.89078,1289.50812 C1057.48941,1289.16427 1057.69595,1288.40024 1057.3521,1287.80161 C1057.00825,1287.20298 1056.24422,1286.99644 1055.64559,1287.34029 C1054.77539,1287.84013 1053.90393,1288.33775 1053.03124,1288.83316 C1052.43087,1289.17398 1052.22047,1289.93695 1052.56128,1290.53732 C1052.90209,1291.13768 1053.66507,1291.34809 1054.26543,1291.00728 Z M1069.81865,1281.86483 C1070.67518,1281.3438 1071.53043,1280.82061 1072.38437,1280.29525 C1072.97237,1279.93352 1073.15579,1279.16361 1072.79405,1278.57561 C1072.43231,1277.98762 1071.6624,1277.8042 1071.07441,1278.16594 C1070.22403,1278.6891 1069.37235,1279.21011 1068.51939,1279.72896 C1067.92959,1280.08774 1067.74231,1280.85672 1068.10108,1281.44652 C1068.45986,1282.03633 1069.22884,1282.22361 1069.81865,1281.86483 Z M1085.11888,1272.23833 C1085.95385,1271.69524 1086.7875,1271.15005 1087.6198,1270.60277 C1088.19663,1270.22348 1088.35676,1269.44839 1087.97747,1268.87157 C1087.59818,1268.29474 1086.8231,1268.1346 1086.24627,1268.51389 C1085.41744,1269.05889 1084.58727,1269.6018 1083.75577,1270.14264 C1083.17706,1270.51905 1083.01306,1271.29333 1083.38948,1271.87204 C1083.76589,1272.45075 1084.54017,1272.61474 1085.11888,1272.23833 Z M1100.10765,1262.16501 C1100.92915,1261.5948 1101.74925,1261.02252 1102.56794,1260.44818 C1103.13309,1260.0517 1103.26984,1259.27215 1102.87336,1258.707 C1102.47689,1258.14184 1101.69733,1258.0051 1101.13218,1258.40157 C1100.31689,1258.97352 1099.5002,1259.54342 1098.68212,1260.11126 C1098.11499,1260.50491 1097.97436,1261.28377 1098.36801,1261.8509 C1098.76166,1262.41803 1099.54052,1262.55866 1100.10765,1262.16501 Z M1114.73037,1251.68771 C1115.53609,1251.09197 1116.34035,1250.49422 1117.14313,1249.89444 C1117.69618,1249.48124 1117.80955,1248.69795 1117.39636,1248.1449 C1116.98316,1247.59185 1116.19987,1247.47848 1115.64682,1247.89168 C1114.84737,1248.48897 1114.04645,1249.08424 1113.24407,1249.6775 C1112.68897,1250.08793 1112.57169,1250.87065 1112.98212,1251.42575 C1113.39255,1251.98085 1114.17527,1252.09813 1114.73037,1251.68771 Z M1129.06993,1240.74972 C1129.85741,1240.1302 1130.64336,1239.5087 1131.42778,1238.88523 C1131.96822,1238.45568 1132.05812,1237.66934 1131.62857,1237.1289 C1131.19902,1236.58846 1130.41268,1236.49857 1129.87224,1236.92812 C1129.09107,1237.549 1128.30837,1238.16793 1127.52416,1238.78488 C1126.98159,1239.21173 1126.88777,1239.99761 1127.31463,1240.54018 C1127.74148,1241.08276 1128.52736,1241.17657 1129.06993,1240.74972 Z M1143.07074,1229.39252 C1143.83775,1228.75112 1144.6032,1228.1078 1145.36707,1227.46256 C1145.89445,1227.01708 1145.96085,1226.22841 1145.51537,1225.70102 C1145.06988,1225.17364 1144.28122,1225.10724 1143.75383,1225.55272 C1142.99312,1226.19529 1142.23084,1226.83596 1141.467,1227.47471 C1140.93741,1227.91757 1140.8671,1228.70589 1141.30996,1229.23548 C1141.75282,1229.76507 1142.54115,1229.83538 1143.07074,1229.39252 Z M1156.72367,1217.62534 C1157.47579,1216.95732 1158.22626,1216.28742 1158.97507,1215.61562 C1159.48894,1215.15461 1159.53179,1214.36432 1159.07078,1213.85045 C1158.60977,1213.33658 1157.81947,1213.29373 1157.30561,1213.75474 C1156.55988,1214.42376 1155.81251,1215.0909 1155.0635,1215.75616 C1154.54734,1216.2146 1154.50055,1217.00467 1154.959,1217.52083 C1155.41744,1218.03699 1156.20751,1218.08378 1156.72367,1217.62534 Z M1170.01964,1205.45737 C1170.7468,1204.77175 1171.47228,1204.08431 1172.19608,1203.39507 C1172.69602,1202.91899 1172.71537,1202.12777 1172.23929,1201.62783 C1171.76321,1201.12788 1170.97199,1201.10854 1170.47205,1201.58461 C1169.75124,1202.27102 1169.02875,1202.95562 1168.30459,1203.63842 C1167.8023,1204.11201 1167.77903,1204.90313 1168.25263,1205.40542 C1168.72623,1205.90771 1169.51735,1205.93097 1170.01964,1205.45737 Z M1182.98947,1192.85786 C1183.69643,1192.15029 1184.40166,1191.44097 1185.10515,1190.72988 C1185.59068,1190.23911 1185.58643,1189.44766 1185.09566,1188.96214 C1184.60489,1188.47661 1183.81345,1188.48086 1183.32792,1188.97163 C1182.62733,1189.67979 1181.925,1190.38619 1181.22095,1191.09084 C1180.733,1191.5792 1180.73334,1192.37066 1181.2217,1192.85861 C1181.71006,1193.34656 1182.50152,1193.34622 1182.98947,1192.85786 Z M1195.54297,1179.91477 C1196.22734,1179.18788 1196.90993,1178.45927 1197.59074,1177.72897 C1198.06148,1177.22401 1198.03374,1176.43304 1197.52878,1175.96229 C1197.02381,1175.49155 1196.23284,1175.51929 1195.76209,1176.02426 C1195.08409,1176.75155 1194.40431,1177.47715 1193.72276,1178.20106 C1193.24953,1178.7037 1193.27337,1179.4948 1193.77601,1179.96803 C1194.27865,1180.44125 1195.06975,1180.41741 1195.54297,1179.91477 Z M1207.71216,1166.59857 C1208.37738,1165.84858 1209.04076,1165.09694 1209.7023,1164.34363 C1210.15783,1163.8249 1210.10661,1163.03511 1209.58788,1162.57957 C1209.06915,1162.12404 1208.27935,1162.17526 1207.82382,1162.69399 C1207.16501,1163.4442 1206.50435,1164.19275 1205.84187,1164.93965 C1205.38377,1165.45612 1205.43109,1166.24616 1205.94756,1166.70426 C1206.46402,1167.16235 1207.25406,1167.11504 1207.71216,1166.59857 Z M1219.48792,1152.91845 C1220.13098,1152.14856 1220.77214,1151.37707 1221.41142,1150.60398 C1221.85135,1150.07195 1221.77669,1149.28402 1221.24467,1148.84409 C1220.71264,1148.40416 1219.92471,1148.47882 1219.48478,1149.01084 C1218.84814,1149.78076 1218.20961,1150.54908 1217.56919,1151.31579 C1217.12663,1151.84564 1217.19739,1152.63392 1217.72723,1153.07648 C1218.25707,1153.51904 1219.04535,1153.44829 1219.48792,1152.91845 Z M1230.82612,1138.92816 C1231.4444,1138.14173 1232.06076,1137.35376 1232.67518,1136.56425 C1233.09917,1136.01943 1233.00123,1135.23406 1232.45641,1134.81007 C1231.9116,1134.38608 1231.12623,1134.48402 1230.70224,1135.02883 C1230.09034,1135.8151 1229.47652,1136.59983 1228.86078,1137.38303 C1228.4341,1137.92574 1228.52817,1138.71159 1229.07088,1139.13826 C1229.6136,1139.56494 1230.39944,1139.47087 1230.82612,1138.92816 Z M1241.78899,1124.5489 C1242.38438,1123.74341 1242.97779,1122.93643 1243.56922,1122.12797 C1243.97682,1121.57079 1243.85557,1120.78867 1243.29839,1120.38107 C1242.74121,1119.97347 1241.95909,1120.09472 1241.55149,1120.6519 C1240.96249,1121.45704 1240.37152,1122.2607 1239.77858,1123.06288 C1239.36823,1123.61804 1239.48562,1124.40074 1240.04078,1124.8111 C1240.59594,1125.22145 1241.37864,1125.10406 1241.78899,1124.5489 Z M1252.29876,1109.87997 C1252.86838,1109.05947 1253.43599,1108.23756 1254.00158,1107.41423 C1254.39248,1106.84521 1254.24809,1106.06704 1253.67906,1105.67614 C1253.11004,1105.28524 1252.33186,1105.42964 1251.94096,1105.99866 C1251.37769,1106.8186 1250.81242,1107.63714 1250.24514,1108.45426 C1249.85144,1109.02135 1249.992,1109.80022 1250.55909,1110.19392 C1251.12618,1110.58762 1251.90506,1110.44706 1252.29876,1109.87997 Z M1262.35037,1094.93359 C1262.89547,1094.09653 1263.43852,1093.25811 1263.97951,1092.41833 C1264.35338,1091.83798 1264.18599,1091.06443 1263.60564,1090.69056 C1263.02528,1090.31669 1262.25173,1090.48408 1261.87786,1091.06443 C1261.33909,1091.90075 1260.79828,1092.73573 1260.25542,1093.56935 C1259.87869,1094.14785 1260.04226,1094.92222 1260.62077,1095.29895 C1261.19928,1095.67567 1261.97364,1095.5121 1262.35037,1094.93359 Z M1271.9686,1079.67321 C1272.48951,1078.81888 1273.00832,1077.96324 1273.52503,1077.10631 C1273.8815,1076.51511 1273.69122,1075.74686 1273.10002,1075.39039 C1272.50882,1075.03391 1271.74058,1075.2242 1271.3841,1075.81539 C1270.86952,1076.6688 1270.35285,1077.52092 1269.83409,1078.37173 C1269.47469,1078.96116 1269.66118,1079.73034 1270.25061,1080.08973 C1270.84004,1080.44912 1271.60921,1080.26264 1271.9686,1079.67321 Z M1281.14451,1064.10784 C1281.6409,1063.23643 1282.13515,1062.36376 1282.62724,1061.48985 C1282.96597,1060.8883 1282.75291,1060.12606 1282.15137,1059.78734 C1281.54983,1059.44861 1280.78759,1059.66167 1280.44886,1060.26321 C1279.95879,1061.13353 1279.46658,1062.0026 1278.97223,1062.87043 C1278.63053,1063.47029 1278.83981,1064.23357 1279.43967,1064.57527 C1280.03953,1064.91698 1280.80281,1064.7077 1281.14451,1064.10784 Z M1289.84235,1048.29703 C1290.31353,1047.40955 1290.78252,1046.52087 1291.24931,1045.631 C1291.57,1045.01965 1291.33438,1044.26409 1290.72303,1043.94339 C1290.11168,1043.6227 1289.35611,1043.85832 1289.03542,1044.46967 C1288.57055,1045.35588 1288.10349,1046.24089 1287.63426,1047.12472 C1287.31053,1047.73447 1287.5424,1048.4912 1288.15215,1048.81492 C1288.7619,1049.13865 1289.51863,1048.90678 1289.84235,1048.29703 Z M1298.05756,1032.25248 C1298.49995,1031.3559 1298.94013,1030.45819 1299.37811,1029.55937 C1299.68052,1028.93877 1299.42258,1028.19053 1298.80198,1027.88812 C1298.18138,1027.58571 1297.43314,1027.84366 1297.13073,1028.46426 C1296.69456,1029.35938 1296.25618,1030.25338 1295.81562,1031.14627 C1295.51015,1031.76536 1295.76439,1032.51487 1296.38348,1032.82034 C1297.00258,1033.12581 1297.75209,1032.87157 1298.05756,1032.25248 Z M1305.80959,1015.93348 C1306.22648,1015.02106 1306.64112,1014.10757 1307.0535,1013.19301 C1307.33728,1012.56368 1307.05715,1011.82345 1306.42782,1011.53968 C1305.79848,1011.2559 1305.05826,1011.53603 1304.77448,1012.16536 C1304.36379,1013.07615 1303.95087,1013.98588 1303.5357,1014.89453 C1303.2488,1015.52245 1303.52525,1016.26405 1304.15317,1016.55095 C1304.78109,1016.83785 1305.5227,1016.5614 1305.80959,1015.93348 Z M1313.06732,999.401967 C1313.45649,998.478388 1313.8434,997.553798 1314.22802,996.628205 C1314.49294,995.9907 1314.19089,995.259146 1313.55339,994.994232 C1312.91588,994.729319 1312.18433,995.031364 1311.91941,995.668869 C1311.53637,996.590645 1311.15107,997.511422 1310.7635,998.431192 C1310.49543,999.067374 1310.79384,999.800418 1311.43002,1000.06849 C1312.0662,1000.33656 1312.79925,1000.03815 1313.06732,999.401967 Z M1319.82657,982.669216 C1320.18742,981.736151 1320.54598,980.802138 1320.90225,979.867184 C1321.14807,979.222077 1320.82438,978.499837 1320.17927,978.254016 C1319.53417,978.008195 1318.81193,978.33188 1318.56611,978.976987 C1318.21131,979.908084 1317.85423,980.838244 1317.49486,981.76746 C1317.24585,982.411342 1317.56595,983.135176 1318.20984,983.384189 C1318.85372,983.633202 1319.57755,983.313097 1319.82657,982.669216 Z M1326.08331,965.74632 C1326.41735,964.799736 1326.74906,963.852257 1327.07844,962.90389 C1327.30494,962.251748 1326.95988,961.539469 1326.30774,961.312972 C1325.6556,961.086475 1324.94332,961.431529 1324.71682,962.083672 C1324.3888,963.028127 1324.05846,963.971697 1323.7258,964.914376 C1323.49606,965.565385 1323.83757,966.27937 1324.48858,966.509105 C1325.13959,966.73884 1325.85357,966.39733 1326.08331,965.74632 Z M1331.83368,948.644207 C1332.1384,947.691201 1332.44079,946.737364 1332.74084,945.782703 C1332.94784,945.124111 1332.58175,944.422413 1331.92316,944.215416 C1331.26457,944.008419 1330.56287,944.374509 1330.35587,945.033101 C1330.05706,945.983825 1329.75591,946.933729 1329.45245,947.882805 C1329.24219,948.540364 1329.6048,949.243866 1330.26236,949.454122 C1330.91992,949.664377 1331.62342,949.301766 1331.83368,948.644207 Z M1337.05784,931.429693 C1337.33469,930.466238 1337.60917,929.502006 1337.88128,928.537006 C1338.06865,927.872562 1337.6819,927.182035 1337.01746,926.99467 C1336.35301,926.807306 1335.66248,927.194056 1335.47512,927.8585 C1335.20412,928.819524 1334.93077,929.779781 1334.65507,930.739265 C1334.46441,931.402772 1334.84773,932.095208 1335.51124,932.285865 C1336.17475,932.476521 1336.86718,932.093199 1337.05784,931.429693 Z M1341.77156,914.058653 C1342.01979,913.087103 1342.26563,912.114832 1342.5091,911.141848 C1342.67668,910.472139 1342.26962,909.793385 1341.59991,909.625807 C1340.9302,909.458229 1340.25145,909.865286 1340.08387,910.534994 C1339.84141,911.503972 1339.59657,912.47224 1339.34937,913.439791 C1339.17847,914.108661 1339.58216,914.789424 1340.25103,914.960318 C1340.9199,915.131212 1341.60066,914.727523 1341.77156,914.058653 Z M1345.97146,896.541422 C1346.19085,895.562611 1346.40785,894.583135 1346.62244,893.603002 C1346.7701,892.928621 1346.3431,892.262231 1345.66872,892.114577 C1344.99434,891.966924 1344.32795,892.393921 1344.18029,893.068302 C1343.96658,894.044406 1343.75048,895.019854 1343.53199,895.994641 C1343.381,896.668283 1343.80469,897.336779 1344.47834,897.487768 C1345.15198,897.638757 1345.82047,897.215064 1345.97146,896.541422 Z M1349.65434,878.888164 C1349.84462,877.903322 1350.0325,876.917871 1350.21797,875.931817 C1350.34558,875.253358 1349.89903,874.599908 1349.22057,874.472295 C1348.54211,874.344682 1347.88866,874.79123 1347.76105,875.469689 C1347.57634,876.451697 1347.38924,877.433104 1347.19973,878.413905 C1347.06877,879.091725 1347.51208,879.747373 1348.1899,879.878336 C1348.86772,880.009299 1349.52337,879.565984 1349.65434,878.888164 Z M1352.80756,861.167467 C1352.96837,860.179481 1353.12677,859.190942 1353.28277,858.201857 C1353.39032,857.51993 1352.9247,856.879932 1352.24277,856.77238 C1351.56084,856.664828 1350.92084,857.130451 1350.81329,857.812378 C1350.65794,858.797415 1350.50018,859.781908 1350.34003,860.765849 C1350.22913,861.447239 1350.6916,862.089519 1351.37299,862.200423 C1352.05438,862.311327 1352.69666,861.848857 1352.80756,861.167467 Z M1355.44897,843.272563 C1355.58051,842.280087 1355.70964,841.287111 1355.83635,840.293642 C1355.9237,839.608834 1355.43936,838.98288 1354.75455,838.895534 C1354.06974,838.808188 1353.44379,839.292527 1353.35644,839.977335 C1353.23024,840.966751 1353.10164,841.955675 1352.97064,842.944101 C1352.87994,843.628472 1353.36121,844.256794 1354.04558,844.347496 C1354.72995,844.438198 1355.35827,843.956934 1355.44897,843.272563 Z M1357.5523,825.390472 C1357.65474,824.393847 1357.75475,823.396773 1357.85235,822.399256 C1357.91958,821.712181 1357.41709,821.1007 1356.73001,821.033475 C1356.04294,820.96625 1355.43146,821.468738 1355.36423,822.155813 C1355.26703,823.149275 1355.16742,824.142296 1355.0654,825.134868 C1354.99482,825.821606 1355.49431,826.435536 1356.18105,826.506119 C1356.86779,826.576702 1357.48172,826.07721 1357.5523,825.390472 Z M1359.13408,807.413376 C1359.20727,806.41428 1359.27804,805.414785 1359.3464,804.414897 C1359.39349,803.726149 1358.87332,803.129637 1358.18457,803.082551 C1357.49582,803.035464 1356.89931,803.555634 1356.85222,804.244382 C1356.78414,805.240224 1356.71365,806.235674 1356.64076,807.230726 C1356.59032,807.919237 1357.10758,808.518273 1357.79609,808.56871 C1358.4846,808.619148 1359.08364,808.101887 1359.13408,807.413376 Z M1360.18923,789.411117 C1360.2333,788.410064 1360.27495,787.408662 1360.31418,786.406915 C1360.3412,785.717088 1359.80389,785.13597 1359.11406,785.108952 C1358.42423,785.081933 1357.84312,785.619246 1357.8161,786.309073 C1357.77702,787.306787 1357.73554,788.304157 1357.69165,789.301178 C1357.66129,789.990866 1358.19578,790.574579 1358.88547,790.604938 C1359.57516,790.635297 1360.15887,790.100805 1360.18923,789.411117 Z M1360.72169,771.332979 C1360.73664,770.331267 1360.74919,769.329253 1360.75933,768.326942 C1360.76631,767.636621 1360.21236,767.071345 1359.52204,767.064363 C1358.83171,767.057381 1358.26644,767.611336 1358.25946,768.301657 C1358.24936,769.299957 1358.23686,770.29796 1358.22197,771.295661 C1358.21166,771.98594 1358.76289,772.553875 1359.45317,772.564181 C1360.14345,772.574486 1360.71138,772.023258 1360.72169,771.332979 Z M1360.73136,753.339097 C1360.71752,752.339841 1360.70128,751.340887 1360.68265,750.342239 C1360.66977,749.652003 1360.09979,749.102895 1359.40955,749.115773 C1358.71932,749.12865 1358.17021,749.698636 1358.18309,750.388871 C1358.20164,751.383517 1358.21781,752.37847 1358.2316,753.373724 C1358.24116,754.064014 1358.8085,754.615853 1359.49879,754.606291 C1360.18908,754.596729 1360.74092,754.029387 1360.73136,753.339097 Z M1360.22084,735.316726 C1360.17827,734.323111 1360.13333,733.329842 1360.086,732.336923 C1360.05314,731.64735 1359.46749,731.114983 1358.77791,731.147848 C1358.08834,731.180712 1357.55597,731.766364 1357.58884,732.455937 C1357.63597,733.444854 1357.68074,734.434122 1357.72313,735.423733 C1357.75268,736.113456 1358.33577,736.648633 1359.02549,736.619084 C1359.71521,736.589535 1360.25039,736.006449 1360.22084,735.316726 Z M1359.18656,717.308805 C1359.11406,716.303016 1359.03912,715.297631 1358.96173,714.292656 C1358.90873,713.604338 1358.30777,713.089314 1357.61945,713.142317 C1356.93113,713.19532 1356.41611,713.79628 1356.46911,714.484598 C1356.54619,715.485502 1356.62082,716.486816 1356.69302,717.488532 C1356.74265,718.177102 1357.34108,718.695064 1358.02965,718.645434 C1358.71822,718.595804 1359.23619,717.997375 1359.18656,717.308805 Z M1357.62549,699.325704 C1357.5242,698.328749 1357.4205,697.332244 1357.31438,696.336194 C1357.24124,695.649723 1356.62546,695.152517 1355.93899,695.225654 C1355.25251,695.29879 1354.75531,695.914574 1354.82845,696.601045 C1354.93413,697.593043 1355.03742,698.585495 1355.13829,699.578395 C1355.20807,700.265215 1355.82141,700.765426 1356.50823,700.695648 C1357.19505,700.625869 1357.69527,700.012524 1357.62549,699.325704 Z M1355.53485,681.378114 C1355.40515,680.391326 1355.27306,679.405033 1355.13859,678.41924 C1355.04529,677.735218 1354.41514,677.256347 1353.73112,677.349652 C1353.0471,677.442956 1352.56823,678.073103 1352.66153,678.757125 C1352.79545,679.738893 1352.927,680.721161 1353.05618,681.703921 C1353.14614,682.388389 1353.77395,682.870326 1354.45842,682.780357 C1355.14289,682.690388 1355.62482,682.062582 1355.53485,681.378114 Z M1352.92158,663.535661 C1352.76116,662.542695 1352.5983,661.550288 1352.43302,660.558445 C1352.31955,659.877479 1351.67553,659.417437 1350.99456,659.530912 C1350.3136,659.644387 1349.85355,660.288409 1349.96703,660.969375 C1350.13163,661.957156 1350.29382,662.9455 1350.45359,663.9344 C1350.5637,664.615918 1351.20544,665.079137 1351.88696,664.969029 C1352.56847,664.85892 1353.03169,664.217179 1352.92158,663.535661 Z M1349.78841,645.807935 C1349.60028,644.828105 1349.40977,643.848876 1349.21687,642.870257 C1349.08337,642.192933 1348.42607,641.752079 1347.74874,641.885583 C1347.07142,642.019087 1346.63056,642.676393 1346.76407,643.353717 C1346.95617,644.328319 1347.1459,645.303528 1347.33326,646.279338 C1347.46343,646.95731 1348.11856,647.401388 1348.79654,647.271213 C1349.47451,647.141039 1349.91859,646.485907 1349.78841,645.807935 Z M1346.12541,628.147285 C1345.90652,627.165383 1345.68523,626.184149 1345.46153,625.20359 C1345.30798,624.530527 1344.63788,624.109378 1343.96481,624.262928 C1343.29175,624.416479 1342.8706,625.086581 1343.02415,625.759644 C1343.24693,626.73617 1343.46732,627.713369 1343.6853,628.691234 C1343.83551,629.365051 1344.50351,629.78952 1345.17733,629.639312 C1345.85115,629.489105 1346.27562,628.821101 1346.12541,628.147285 Z M1341.93069,610.565555 C1341.68506,609.599897 1341.43707,608.634949 1341.18675,607.670719 C1341.01327,607.002515 1340.33095,606.601458 1339.66275,606.774934 C1338.99454,606.94841 1338.59349,607.630727 1338.76696,608.298932 C1339.01626,609.259191 1339.26322,610.220165 1339.50784,611.181848 C1339.67803,611.850898 1340.35836,612.255309 1341.02741,612.085125 C1341.69646,611.91494 1342.10087,611.234606 1341.93069,610.565555 Z M1337.21867,593.131019 C1336.94276,592.167337 1336.66449,591.204431 1336.38386,590.24231 C1336.19055,589.57957 1335.49659,589.199019 1334.83385,589.392325 C1334.17111,589.585631 1333.79056,590.279593 1333.98387,590.942333 C1334.26334,591.900489 1334.54046,592.859425 1334.81523,593.819135 C1335.00525,594.482826 1335.69732,594.866813 1336.36101,594.676794 C1337.0247,594.486776 1337.40868,593.794709 1337.21867,593.131019 Z M1331.99277,575.854093 C1331.68688,574.894592 1331.37863,573.935934 1331.06801,572.978125 C1330.85505,572.321438 1330.15006,571.961729 1329.49337,572.174692 C1328.83668,572.387655 1328.47697,573.092646 1328.68994,573.749333 C1328.99927,574.703192 1329.30626,575.657897 1329.61088,576.613441 C1329.82057,577.271181 1330.52376,577.634399 1331.1815,577.424711 C1331.83924,577.215023 1332.20246,576.511834 1331.99277,575.854093 Z M1326.27581,558.800006 C1325.94548,557.861075 1325.61286,556.923024 1325.27795,555.98586 C1325.04563,555.335768 1324.3303,554.997096 1323.68021,555.229415 C1323.03011,555.461733 1322.69144,556.177068 1322.92376,556.82716 C1323.25728,557.760457 1323.58853,558.694638 1323.9175,559.629696 C1324.14661,560.280925 1324.86027,560.623118 1325.5115,560.394005 C1326.16273,560.164892 1326.50492,559.451235 1326.27581,558.800006 Z M1320.0346,541.869458 C1319.67557,540.938471 1319.31426,540.008427 1318.95068,539.079334 C1318.69911,538.43645 1317.974,538.119233 1317.33112,538.370811 C1316.68823,538.622388 1316.37102,539.347493 1316.62259,539.990377 C1316.98467,540.915638 1317.34449,541.841845 1317.70204,542.768992 C1317.95043,543.413111 1318.67396,543.733905 1319.31808,543.485506 C1319.9622,543.237106 1320.283,542.513577 1320.0346,541.869458 Z M1313.29065,525.128752 C1312.90362,524.207803 1312.51433,523.28786 1312.12278,522.368928 C1311.85217,521.733821 1311.11794,521.438338 1310.48283,521.708949 C1309.84773,521.97956 1309.55224,522.71379 1309.82285,523.348897 C1310.21278,524.264039 1310.60047,525.180189 1310.98591,526.097339 C1311.25338,526.733776 1311.98614,527.032885 1312.62258,526.765417 C1313.25901,526.497949 1313.55812,525.765189 1313.29065,525.128752 Z M1306.04801,508.588982 C1305.63379,507.68012 1305.21734,506.772323 1304.79867,505.865596 C1304.50927,505.238829 1303.76656,504.96534 1303.1398,505.254743 C1302.51303,505.544145 1302.23954,506.286848 1302.52894,506.913615 C1302.94589,507.816604 1303.36062,508.720659 1303.77313,509.625773 C1304.05943,510.253963 1304.80077,510.531118 1305.42896,510.244816 C1306.05715,509.958514 1306.33431,509.217172 1306.04801,508.588982 Z M1298.33612,492.312821 C1297.89572,491.417917 1297.45312,490.524134 1297.00834,489.631479 C1296.70046,489.013578 1295.94997,488.762256 1295.33207,489.070136 C1294.71417,489.378015 1294.46285,490.128508 1294.77072,490.746409 C1295.21367,491.635386 1295.65444,492.525486 1296.09303,493.416701 C1296.39786,494.036113 1297.14711,494.291134 1297.76652,493.986305 C1298.38593,493.681477 1298.64095,492.932233 1298.33612,492.312821 Z M1290.13694,476.258534 C1289.66526,475.367883 1289.19138,474.478437 1288.71531,473.590203 C1288.38918,472.981736 1287.63154,472.752854 1287.02307,473.078982 C1286.41461,473.405109 1286.18572,474.162748 1286.51185,474.771215 C1286.98597,475.655791 1287.4579,476.541574 1287.92763,477.428557 C1288.25073,478.038641 1289.00721,478.271293 1289.6173,477.9482 C1290.22738,477.625107 1290.46003,476.868618 1290.13694,476.258534 Z M1281.45487,460.437648 C1280.95914,459.565292 1280.46126,458.69419 1279.96123,457.824351 C1279.61718,457.225837 1278.85308,457.019555 1278.25457,457.363608 C1277.65605,457.707661 1277.44977,458.471762 1277.79382,459.070276 C1278.29179,459.936535 1278.78762,460.804051 1279.28131,461.672816 C1279.6224,462.273027 1280.38546,462.483093 1280.98568,462.142011 C1281.58589,461.800929 1281.79595,461.037859 1281.45487,460.437648 Z M1272.29447,444.861862 C1271.77603,444.009603 1271.2555,443.158643 1270.7329,442.30899 C1270.37121,441.720963 1269.60132,441.537476 1269.01329,441.89916 C1268.42527,442.260845 1268.24178,443.030738 1268.60347,443.618765 C1269.12392,444.464922 1269.6423,445.312381 1270.15861,446.161134 C1270.5174,446.750935 1271.28638,446.938211 1271.87618,446.579427 C1272.46598,446.220643 1272.65326,445.451663 1272.29447,444.861862 Z M1262.69144,429.59074 C1262.14524,428.750104 1261.59698,427.910839 1261.04665,427.072955 C1260.66766,426.49593 1259.89266,426.335392 1259.31563,426.714383 C1258.73861,427.093374 1258.57807,427.868378 1258.95706,428.445402 C1259.50512,429.279841 1260.05113,430.115653 1260.59508,430.952832 C1260.97121,431.531724 1261.74541,431.696095 1262.3243,431.319963 C1262.9032,430.943832 1263.06757,430.169632 1262.69144,429.59074 Z M1252.62237,414.586639 C1252.04983,413.7603 1251.47526,412.935401 1250.89866,412.111948 C1250.50268,411.546447 1249.72324,411.409022 1249.15774,411.805001 C1248.59224,412.20098 1248.45482,412.980414 1248.8508,413.545915 C1249.42503,414.365982 1249.99724,415.18749 1250.56742,416.010432 C1250.96059,416.57789 1251.73933,416.719179 1252.30679,416.32601 C1252.87425,415.932841 1253.01554,415.154098 1252.62237,414.586639 Z M1242.15957,399.952988 C1241.56231,399.143234 1240.96306,398.334982 1240.36182,397.528238 C1239.94929,396.974699 1239.16613,396.860393 1238.61259,397.272928 C1238.05905,397.685463 1237.94474,398.468622 1238.35728,399.022161 C1238.95605,399.825588 1239.55284,400.630518 1240.14764,401.436943 C1240.55742,401.992523 1241.34,402.110715 1241.89558,401.700932 C1242.45116,401.291149 1242.56935,400.508568 1242.15957,399.952988 Z M1231.24602,385.606557 C1230.6258,384.815841 1230.00363,384.026681 1229.37952,383.239085 C1228.95077,382.698013 1228.16456,382.606963 1227.62349,383.03572 C1227.08242,383.464477 1226.99137,384.250678 1227.42013,384.79175 C1228.04167,385.576109 1228.66128,386.362024 1229.27895,387.149489 C1229.70502,387.69268 1230.49076,387.787626 1231.03395,387.361557 C1231.57714,386.935488 1231.67209,386.149748 1231.24602,385.606557 Z M1219.92309,371.603146 C1219.28182,370.833657 1218.63866,370.065771 1217.99362,369.299497 C1217.54904,368.771352 1216.76049,368.703613 1216.23234,369.148196 C1215.7042,369.59278 1215.63646,370.381332 1216.08104,370.909477 C1216.72343,371.6726 1217.36394,372.437329 1218.00258,373.203654 C1218.44454,373.733989 1219.23275,373.805625 1219.76309,373.363657 C1220.29342,372.921689 1220.36506,372.133482 1219.92309,371.603146 Z M1208.16231,357.909515 C1207.49536,357.155885 1206.82655,356.403931 1206.15589,355.65366 C1205.69581,355.13896 1204.90559,355.094685 1204.3909,355.554767 C1203.8762,356.01485 1203.83192,356.805067 1204.292,357.319766 C1204.9599,358.06695 1205.62596,358.815811 1206.29017,359.566341 C1206.74769,360.08332 1207.53768,360.131521 1208.05465,359.674001 C1208.57163,359.216481 1208.61983,358.426494 1208.16231,357.909515 Z M1196.00776,344.579453 C1195.32408,343.851653 1194.63862,343.125558 1193.95139,342.401176 C1193.47625,341.900347 1192.68506,341.879524 1192.18423,342.354667 C1191.6834,342.829811 1191.66258,343.620993 1192.13772,344.121822 C1192.82213,344.843222 1193.50476,345.566328 1194.18563,346.291132 C1194.6583,346.794299 1195.44937,346.819024 1195.95254,346.346357 C1196.45571,345.87369 1196.48043,345.08262 1196.00776,344.579453 Z M1183.46855,331.622167 C1182.76389,330.915328 1182.0575,330.210248 1181.3494,329.506933 C1180.85959,329.020437 1180.06814,329.023122 1179.58164,329.512931 C1179.09514,330.002739 1179.09783,330.794191 1179.58764,331.280687 C1180.29282,331.981104 1180.9963,332.68328 1181.69806,333.387206 C1182.18546,333.876114 1182.97692,333.877334 1183.46582,333.389932 C1183.95473,332.90253 1183.95595,332.111075 1183.46855,331.622167 Z M1170.51271,319.008057 C1169.7832,318.318673 1169.05199,317.631121 1168.3191,316.945408 C1167.81499,316.473747 1167.02397,316.500052 1166.55231,317.004163 C1166.08065,317.508273 1166.10696,318.299292 1166.61107,318.770953 C1167.34093,319.453837 1168.06912,320.138553 1168.79563,320.825094 C1169.29739,321.299254 1170.08853,321.276878 1170.56269,320.775117 C1171.03685,320.273356 1171.01447,319.482217 1170.51271,319.008057 Z M1157.23035,306.825194 C1156.47897,306.156321 1155.72594,305.489341 1154.97127,304.824262 C1154.45335,304.367817 1153.66346,304.417659 1153.20702,304.935588 C1152.75057,305.453516 1152.80041,306.243401 1153.31834,306.699846 C1154.06989,307.362178 1154.81981,308.026402 1155.56809,308.692512 C1156.08373,309.151534 1156.87386,309.105631 1157.33288,308.589985 C1157.7919,308.074339 1157.746,307.284215 1157.23035,306.825194 Z M1143.59068,295.042765 C1142.82065,294.397376 1142.04904,293.753927 1141.27585,293.112425 C1140.74455,292.671615 1139.9565,292.744971 1139.5157,293.27627 C1139.07489,293.807569 1139.14824,294.595618 1139.67954,295.036427 C1140.44953,295.675276 1141.21795,296.316063 1141.98479,296.958782 C1142.51388,297.402236 1143.30229,297.332811 1143.74574,296.803718 C1144.1892,296.274625 1144.11977,295.486219 1143.59068,295.042765 Z M1129.55841,283.634985 C1128.77324,283.015966 1127.98655,282.398917 1127.19836,281.783846 C1126.65411,281.359135 1125.86861,281.456043 1125.4439,282.000296 C1125.01918,282.544549 1125.11609,283.33005 1125.66034,283.754762 C1126.44527,284.367283 1127.2287,284.981775 1128.01061,285.598228 C1128.55275,286.025641 1129.33872,285.93264 1129.76613,285.390505 C1130.19355,284.84837 1130.10055,284.062397 1129.55841,283.634985 Z M1115.23038,272.682388 C1114.4276,272.08755 1113.62337,271.494728 1112.81768,270.903928 C1112.26097,270.495692 1111.47872,270.61606 1111.07048,271.172777 C1110.66224,271.729495 1110.78261,272.511744 1111.33933,272.919981 C1112.14167,273.508327 1112.94256,274.098688 1113.74201,274.691056 C1114.29668,275.102059 1115.07952,274.985586 1115.49053,274.430908 C1115.90153,273.87623 1115.78506,273.09339 1115.23038,272.682388 Z M1100.57238,262.157892 C1099.75027,261.586108 1098.92675,261.016395 1098.10184,260.448759 C1097.53312,260.057415 1096.75483,260.201206 1096.36349,260.769925 C1095.97214,261.338644 1096.11594,262.116929 1096.68465,262.508273 C1097.50614,263.073547 1098.32623,263.640889 1099.14492,264.210294 C1099.71167,264.604477 1100.49067,264.464578 1100.88485,263.897823 C1101.27903,263.331068 1101.13913,262.552074 1100.57238,262.157892 Z M1085.59352,252.070711 C1084.75684,251.52538 1083.91881,250.982153 1083.07946,250.441036 C1082.49922,250.066973 1081.72562,250.234105 1081.35155,250.814336 C1080.97749,251.394567 1081.14462,252.168175 1081.72485,252.542238 C1082.56071,253.081099 1083.39524,253.622061 1084.22844,254.165118 C1084.80679,254.542076 1085.58122,254.378812 1085.95818,253.800457 C1086.33514,253.222102 1086.17188,252.447669 1085.59352,252.070711 Z M1070.35132,242.459575 C1069.49397,241.936819 1068.63531,241.416232 1067.77537,240.897821 C1067.18414,240.541401 1066.41591,240.731753 1066.05949,241.322986 C1065.70307,241.914218 1065.89342,242.682442 1066.48466,243.038863 C1067.34101,243.555108 1068.19607,244.073519 1069.04985,244.594091 C1069.63928,244.953484 1070.40845,244.767002 1070.76784,244.177571 C1071.12724,243.588141 1070.94076,242.818968 1070.35132,242.459575 Z M1054.80836,233.301306 C1053.93643,232.805124 1053.06326,232.311148 1052.18887,231.819384 C1051.58715,231.480971 1050.82502,231.694425 1050.48661,232.296146 C1050.1482,232.897867 1050.36165,233.659996 1050.96337,233.998409 C1051.8341,234.488113 1052.70361,234.98002 1053.57189,235.474125 C1054.17189,235.815567 1054.93509,235.605958 1055.27653,235.005951 C1055.61797,234.405943 1055.40836,233.642748 1054.80836,233.301306 Z M1038.97364,224.605035 C1038.0885,224.136234 1037.20218,223.669671 1036.3147,223.20535 C1035.703,222.885318 1034.94769,223.121758 1034.62766,223.733452 C1034.30763,224.345147 1034.54406,225.100461 1035.15576,225.420494 C1036.03952,225.882865 1036.92211,226.347471 1037.80354,226.814304 C1038.41362,227.137418 1039.17011,226.904792 1039.49323,226.294719 C1039.81634,225.684646 1039.58372,224.928149 1038.97364,224.605035 Z M1022.90733,216.405013 C1022.00637,215.962262 1021.1043,215.521795 1020.20112,215.083617 C1019.58,214.782282 1018.8322,215.041518 1018.53087,215.662637 C1018.22953,216.283756 1018.48877,217.031552 1019.10989,217.332887 C1020.00927,217.769222 1020.90755,218.207837 1021.80472,218.648726 C1022.4243,218.953203 1023.1734,218.697759 1023.47788,218.078175 C1023.78236,217.458591 1023.52691,216.709491 1022.90733,216.405013 Z M1006.56902,208.68221 C1005.6562,208.267615 1004.74233,207.855332 1003.82742,207.445364 C1003.19742,207.163066 1002.45785,207.444934 1002.17556,208.074933 C1001.89326,208.704932 1002.17513,209.444495 1002.80512,209.726794 C1003.71619,210.135033 1004.6262,210.54558 1005.53517,210.958428 C1006.16373,211.243916 1006.90472,210.965801 1007.1902,210.337241 C1007.47569,209.708681 1007.19758,208.967699 1006.56902,208.68221 Z M990.020433,201.467731 C989.096404,201.081532 988.171381,200.69767 987.245373,200.31615 C986.607069,200.053166 985.876432,200.357422 985.613448,200.995725 C985.350464,201.634029 985.65472,202.364666 986.293023,202.62765 C987.215123,203.007559 988.136241,203.389801 989.056371,203.77437 C989.693332,204.040588 990.425503,203.740042 990.691722,203.103082 C990.95794,202.466121 990.657394,201.733949 990.020433,201.467731 Z M973.27288,194.765908 C972.336259,194.407565 971.398701,194.051595 970.460214,193.698002 C969.81419,193.454599 969.093168,193.780988 968.849766,194.427012 C968.606363,195.073036 968.932752,195.794058 969.578776,196.03746 C970.513295,196.389559 971.44689,196.744025 972.379553,197.100852 C973.02433,197.347538 973.747003,197.024821 973.993689,196.380044 C974.240375,195.735267 973.917658,195.012593 973.27288,194.765908 Z M956.337492,188.58092 C955.389881,188.251135 954.441392,187.923751 953.492032,187.598771 C952.838884,187.375189 952.128153,187.723421 951.904571,188.376569 C951.680989,189.029717 952.029221,189.740447 952.682369,189.964029 C953.627711,190.287634 954.572187,190.613633 955.515788,190.942022 C956.167788,191.168929 956.880284,190.824323 957.107191,190.172323 C957.334098,189.520323 956.989492,188.807827 956.337492,188.58092 Z M939.22523,182.916793 C938.267924,182.61606 937.309799,182.31775 936.350861,182.021868 C935.691192,181.818326 934.991422,182.18809 934.787881,182.847758 C934.584339,183.507426 934.954102,184.207196 935.613771,184.410738 C936.568648,184.705367 937.522716,185.002413 938.475968,185.301873 C939.134589,185.508776 939.836236,185.142586 940.043139,184.483965 C940.250042,183.825343 939.883852,183.123696 939.22523,182.916793 Z M921.946887,177.7774 C920.982247,177.506435 920.016848,177.237907 919.050696,176.97182 C918.385121,176.788514 917.696967,177.179471 917.513661,177.845046 C917.330355,178.510621 917.721312,179.198775 918.386887,179.382081 C919.348946,179.647041 920.310256,179.914432 921.270809,180.184249 C921.935442,180.370943 922.625578,179.983496 922.812272,179.318864 C922.998966,178.654231 922.61152,177.964094 921.946887,177.7774 Z M904.625855,173.194464 C903.652417,172.952653 902.678275,172.713301 901.703436,172.476411 C901.032603,172.313396 900.356635,172.725064 900.19362,173.395897 C900.030605,174.066731 900.442273,174.742698 901.113106,174.905713 C902.083817,175.1416 903.053833,175.379938 904.023148,175.620726 C904.693141,175.787158 905.371199,175.378942 905.537632,174.708948 C905.704065,174.038955 905.295848,173.360897 904.625855,173.194464 Z M887.04832,169.112195 C886.069457,168.900568 885.089947,168.691408 884.1098,168.484717 C883.4343,168.342269 882.771222,168.774393 882.628775,169.449893 C882.486327,170.125393 882.918451,170.78847 883.59395,170.930918 C884.569951,171.136735 885.545315,171.34501 886.520036,171.55574 C887.194802,171.701622 887.860069,171.272876 888.005951,170.59811 C888.151832,169.923343 887.723087,169.258076 887.04832,169.112195 Z M869.336016,165.56533 C868.350252,165.383549 867.363898,165.20425 866.376959,165.027435 C865.697422,164.905693 865.047857,165.357875 864.926115,166.037411 C864.804373,166.716948 865.256555,167.366513 865.936091,167.488255 C866.91886,167.664323 867.901047,167.842864 868.882645,168.023877 C869.561554,168.149072 870.213409,167.700198 870.338604,167.021289 C870.463799,166.34238 870.014925,165.690525 869.336016,165.56533 Z M851.557266,162.566049 C850.566451,162.414369 849.575099,162.265179 848.583218,162.118482 C847.900291,162.017478 847.264789,162.489221 847.163785,163.172148 C847.062782,163.855075 847.534524,164.490576 848.217451,164.59158 C849.205151,164.737659 850.192322,164.88622 851.178959,165.03726 C851.861365,165.141727 852.499251,164.673214 852.603718,163.990808 C852.708185,163.308402 852.239672,162.670516 851.557266,162.566049 Z M833.66493,160.105091 C832.670947,159.983747 831.676481,159.864893 830.68154,159.748531 C829.995857,159.668338 829.374993,160.159184 829.2948,160.844867 C829.214607,161.530549 829.705453,162.151414 830.391135,162.231607 C831.381894,162.347479 832.372178,162.465834 833.361982,162.586668 C834.04725,162.670325 834.670587,162.182622 834.754244,161.497353 C834.837901,160.812085 834.350198,160.188748 833.66493,160.105091 Z M815.727982,158.190789 C814.730433,158.099576 813.732452,158.010857 812.734048,157.924634 C812.046252,157.865236 811.440531,158.374652 811.381132,159.062448 C811.321734,159.750244 811.831151,160.355965 812.518946,160.415363 C813.51317,160.501225 814.506969,160.589572 815.500339,160.680403 C816.187827,160.743265 816.796106,160.236906 816.858968,159.549418 C816.92183,158.86193 816.41547,158.253651 815.727982,158.190789 Z M797.757446,156.820596 C796.757197,156.759468 795.756567,156.700834 794.755563,156.644698 C794.06629,156.606043 793.476188,157.133473 793.437534,157.822746 C793.398879,158.512019 793.926309,159.102121 794.615582,159.140776 C795.612413,159.196678 796.60887,159.255067 797.604947,159.315941 C798.294017,159.358052 798.886757,158.833588 798.928869,158.144518 C798.97098,157.455448 798.446516,156.862708 797.757446,156.820596 Z M779.703808,155.989854 C778.702483,155.958848 777.700827,155.930332 776.698846,155.904308 C776.008722,155.886383 775.434736,156.431308 775.416812,157.121431 C775.398887,157.811554 775.943812,158.38554 776.633935,158.403465 C777.631762,158.429381 778.629263,158.457779 779.626434,158.488656 C780.316459,158.510022 780.893156,157.967967 780.914522,157.277942 C780.935889,156.587917 780.393834,156.01122 779.703808,155.989854 Z M761.697421,155.701057 C761.354371,155.700727 761.354371,155.700727 761.01126,155.700656 C760.223205,155.700656 759.445155,155.702149 758.665886,155.70515 C757.975535,155.707809 757.41805,156.269604 757.420709,156.959955 C757.423368,157.650306 757.985163,158.20779 758.675514,158.205132 C759.451567,158.202143 760.226408,158.200656 761.011237,158.200656 C761.352909,158.200727 761.352909,158.200727 761.694545,158.201056 C762.3849,158.20185 762.945188,157.64285 762.945982,156.952494 C762.946776,156.262139 762.387776,155.701851 761.697421,155.701057 Z M743.621101,155.950287 C742.625145,155.978934 741.629516,156.010043 740.634217,156.043612 C739.944254,156.066884 739.403793,156.645075 739.427064,157.335039 C739.450336,158.025002 740.028527,158.565463 740.718491,158.542192 C741.709657,158.508761 742.701155,158.477781 743.692978,158.449253 C744.383049,158.429405 744.926371,157.853902 744.906523,157.163831 C744.886675,156.473761 744.311172,155.930439 743.621101,155.950287 Z M725.617142,156.738176 C724.608742,156.797477 723.600728,156.859314 722.593104,156.923683 C721.904153,156.967696 721.381326,157.56188 721.425338,158.250832 C721.46935,158.939783 722.063535,159.46261 722.752487,159.418598 C723.755905,159.354497 724.759714,159.292918 725.763907,159.233864 C726.453072,159.193336 726.978897,158.601802 726.938369,157.912637 C726.89784,157.223472 726.306307,156.697647 725.617142,156.738176 Z M707.635418,158.067701 C706.635634,158.156806 705.636281,158.248414 704.637364,158.342525 C703.950052,158.407279 703.445368,159.016949 703.510122,159.704262 C703.574876,160.391574 704.184546,160.896257 704.871858,160.831504 C705.866588,160.737787 706.861754,160.646562 707.857348,160.557831 C708.544979,160.496546 709.052732,159.889431 708.991448,159.201801 C708.930164,158.51417 708.323048,158.006416 707.635418,158.067701 Z M689.686611,159.941667 C688.69678,160.060205 687.707424,160.18121 686.718551,160.304682 C686.033515,160.390217 685.547522,161.014888 685.633056,161.699924 C685.718591,162.384961 686.343262,162.870954 687.028299,162.785419 C688.013012,162.662467 688.998207,162.54197 689.983876,162.423931 C690.669334,162.341843 691.158463,161.719625 691.076376,161.034167 C690.994288,160.348708 690.37207,159.85958 689.686611,159.941667 Z M671.781733,162.362632 C670.785555,162.512805 669.789916,162.665492 668.794825,162.820693 C668.112716,162.927079 667.646,163.566281 667.752386,164.248391 C667.858772,164.9305 668.497974,165.397216 669.180083,165.29083 C670.170977,165.136284 671.162416,164.98424 672.154393,164.834701 C672.837036,164.731794 673.307005,164.09498 673.204097,163.412337 C673.10119,162.729694 672.464376,162.259725 671.781733,162.362632 Z M654.047456,165.311909 C653.06421,165.49081 652.081549,165.672177 651.099481,165.85601 C650.420911,165.983031 649.973792,166.636092 650.100813,167.314661 C650.227834,167.993231 650.880894,168.44035 651.559464,168.313329 C652.537382,168.130273 653.51589,167.949672 654.494981,167.771527 C655.174186,167.647947 655.624608,166.997161 655.501028,166.317956 C655.377447,165.638751 654.726661,165.188328 654.047456,165.311909 Z M636.320653,168.817926 C635.335181,169.028537 634.350361,169.241646 633.366199,169.457249 C632.691835,169.604984 632.264918,170.271426 632.412653,170.945789 C632.560388,171.620152 633.22683,172.047069 633.901193,171.899334 C634.88119,171.684644 635.861842,171.472437 636.843144,171.262717 C637.518254,171.118435 637.948576,170.454187 637.804294,169.779076 C637.660012,169.103966 636.995763,168.673644 636.320653,168.817926 Z M618.727924,172.85987 C617.758505,173.098253 616.789782,173.339073 615.82176,173.582326 C615.15222,173.750575 614.745843,174.429737 614.914092,175.099277 C615.082341,175.768817 615.761502,176.175194 616.431042,176.006945 C617.394964,175.764721 618.359584,175.524921 619.324897,175.287548 C619.995282,175.122699 620.405099,174.445607 620.24025,173.775222 C620.0754,173.104837 619.398309,172.69502 618.727924,172.85987 Z M601.279553,177.434324 C600.311865,177.703893 599.344938,177.975913 598.378781,178.25038 C597.714701,178.439033 597.329291,179.130308 597.517944,179.794388 C597.706596,180.458468 598.397872,180.843877 599.061951,180.655225 C600.024016,180.381921 600.986847,180.111053 601.950436,179.842625 C602.61547,179.657366 603.004404,178.968067 602.819145,178.303033 C602.633886,177.637999 601.944587,177.249064 601.279553,177.434324 Z M583.985992,182.537723 C583.022244,182.838205 582.059325,183.141142 581.09724,183.44653 C580.439238,183.655394 580.07514,184.358129 580.284005,185.016131 C580.49287,185.674133 581.195604,186.038231 581.853607,185.829366 C582.811617,185.525272 583.770459,185.223618 584.730125,184.924408 C585.38919,184.718921 585.756888,184.018064 585.551401,183.358999 C585.345914,182.699934 584.645057,182.332236 583.985992,182.537723 Z M566.857858,188.166352 C565.914627,188.49235 564.972263,188.820723 564.030774,189.151469 C563.37944,189.380283 563.03692,190.093784 563.265734,190.745117 C563.494548,191.396451 564.208049,191.738971 564.859382,191.510157 C565.796888,191.18081 566.735265,190.853826 567.674504,190.529208 C568.326989,190.303698 568.67312,189.591942 568.447609,188.939457 C568.222099,188.286972 567.510343,187.940841 566.857858,188.166352 Z M549.905938,194.316344 C548.970429,194.671975 548.035849,195.02997 547.102209,195.390326 C546.45816,195.638907 546.137571,196.362527 546.386153,197.006576 C546.634735,197.650624 547.358355,197.971213 548.002403,197.722631 C548.932098,197.363799 549.862727,197.007317 550.794283,196.653189 C551.439585,196.407879 551.763843,195.685896 551.518533,195.040594 C551.273223,194.395292 550.55124,194.071034 549.905938,194.316344 Z M533.141188,200.983679 C532.215502,201.368262 531.290809,201.755188 530.367117,202.144453 C529.730945,202.412551 529.432561,203.145606 529.700659,203.781779 C529.968756,204.417951 530.701812,204.716334 531.337984,204.448237 C532.257778,204.060614 533.178569,203.675321 534.100348,203.292361 C534.737873,203.027496 535.039974,202.295965 534.775109,201.65844 C534.510244,201.020915 533.778713,200.718814 533.141188,200.983679 Z M516.574735,208.164184 C515.66093,208.576898 514.748178,208.991926 513.836487,209.409262 C513.208773,209.696605 512.932847,210.438406 513.22019,211.06612 C513.507533,211.693835 514.249334,211.96976 514.877048,211.682417 C515.784899,211.266838 516.693806,210.853559 517.603761,210.442584 C518.232923,210.158426 518.512605,209.418034 518.228448,208.788871 C517.944291,208.159708 517.203898,207.880026 516.574735,208.164184 Z M500.269057,215.828518 C499.369015,216.26836 498.470084,216.710477 497.57227,217.154866 C496.953557,217.461109 496.700249,218.210934 497.006492,218.829648 C497.312735,219.448361 498.062561,219.701669 498.681274,219.395426 C499.575313,218.952906 500.470465,218.512647 501.366722,218.074655 C501.986976,217.771543 502.24407,217.023008 501.940958,216.402754 C501.637846,215.782501 500.889311,215.525406 500.269057,215.828518 Z M484.182707,223.99422 C483.298374,224.460108 482.415204,224.928226 481.533208,225.398569 C480.924054,225.723413 480.693576,226.480567 481.018419,227.089721 C481.343263,227.698874 482.100417,227.929353 482.709571,227.604509 C483.587867,227.136139 484.46733,226.669986 485.347953,226.206053 C485.958734,225.884279 486.19302,225.128294 485.871246,224.517513 C485.549472,223.906733 484.793488,223.672447 484.182707,223.99422 Z M468.327242,232.656722 C467.460501,233.147446 466.594975,233.640346 465.730671,234.135418 C465.131628,234.478548 464.92417,235.242331 465.267301,235.841374 C465.610432,236.440417 466.374215,236.647875 466.973258,236.304744 C467.833943,235.811745 468.695845,235.320909 469.558957,234.83224 C470.15971,234.492111 470.370987,233.729376 470.030859,233.128623 C469.69073,232.527871 468.927995,232.316593 468.327242,232.656722 Z M452.76287,241.781882 C451.90475,242.302541 451.047923,242.82537 450.192396,243.350362 C449.603994,243.711435 449.419706,244.481137 449.780779,245.06954 C450.141852,245.657943 450.911554,245.84223 451.499956,245.481157 C452.351909,244.958357 453.205157,244.437713 454.059691,243.91923 C454.649904,243.561122 454.838062,242.792357 454.479954,242.202145 C454.121847,241.611933 453.353082,241.423775 452.76287,241.781882 Z M437.451099,251.391397 C436.61452,251.934186 435.779275,252.479075 434.945372,253.026058 C434.368117,253.404698 434.207108,254.179604 434.585748,254.756859 C434.964387,255.334114 435.739293,255.495123 436.316548,255.116484 C437.146975,254.57178 437.978738,254.029163 438.81183,253.488636 C439.390967,253.112881 439.55584,252.338788 439.180084,251.759652 C438.804329,251.180515 438.030236,251.015642 437.451099,251.391397 Z M422.496978,261.415864 C421.673701,261.985817 420.851827,262.557843 420.031364,263.131935 C419.465728,263.527721 419.328036,264.307108 419.723822,264.872745 C420.119608,265.438382 420.898995,265.576073 421.464632,265.180287 C422.281682,264.608582 423.100138,264.038936 423.91999,263.471354 C424.487598,263.0784 424.629183,262.299711 424.236229,261.732103 C423.843275,261.164495 423.064586,261.02291 422.496978,261.415864 Z M407.81554,271.909138 C407.008148,272.504698 406.202222,273.102292 405.397769,273.701915 C404.84426,274.11449 404.73001,274.897657 405.142585,275.451166 C405.55516,276.004676 406.338326,276.118926 406.891836,275.706351 C407.692949,275.109217 408.49553,274.514104 409.29957,273.921016 C409.855135,273.511213 409.973298,272.728627 409.563494,272.173062 C409.153691,271.617497 408.371105,271.499334 407.81554,271.909138 Z M393.463412,282.831177 C392.674238,283.450598 391.886588,284.072006 391.100467,284.695393 C390.559545,285.12434 390.468772,285.910573 390.897718,286.451495 C391.326665,286.992417 392.112898,287.08319 392.65382,286.654244 C393.436684,286.033439 394.221071,285.414606 395.006974,284.797751 C395.550029,284.371508 395.644723,283.585737 395.21848,283.042683 C394.792237,282.499628 394.006466,282.404934 393.463412,282.831177 Z M379.493092,294.136568 C378.724206,294.777947 377.956893,295.421256 377.191158,296.066487 C376.663234,296.511333 376.595885,297.299918 377.040731,297.827842 C377.485576,298.355766 378.274162,298.423115 378.802086,297.97827 C379.564653,297.335707 380.328793,296.69506 381.094498,296.056333 C381.624627,295.614117 381.695894,294.825876 381.253678,294.295748 C380.811462,293.765619 380.023221,293.694352 379.493092,294.136568 Z M365.783513,305.924696 C365.037287,306.585987 364.292674,307.24914 363.549682,307.914149 C363.035278,308.374562 362.99151,309.164807 363.451922,309.679211 C363.912335,310.193615 364.70258,310.237383 365.216984,309.77697 C365.956908,309.114708 366.698445,308.454294 367.441589,307.795734 C367.958262,307.337869 368.005935,306.54785 367.54807,306.031177 C367.090205,305.514504 366.300186,305.466831 365.783513,305.924696 Z M352.473956,318.077753 C351.745014,318.763516 351.017751,319.451103 350.292174,320.140507 C349.791703,320.616027 349.771477,321.407225 350.246998,321.907696 C350.722518,322.408168 351.513716,322.428394 352.014187,321.952873 C352.736771,321.266313 353.461035,320.581562 354.18697,319.898628 C354.68979,319.425592 354.713936,318.634504 354.2409,318.131684 C353.767864,317.628863 352.976776,317.604718 352.473956,318.077753 Z M339.530136,330.622728 C338.82121,331.330539 338.11402,332.040124 337.408571,332.751476 C336.922453,333.241661 336.925751,334.033111 337.415936,334.519228 C337.906121,335.005345 338.69757,335.002048 339.183687,334.511863 C339.88623,333.803441 340.590507,333.096779 341.296512,332.391884 C341.785051,331.904113 341.785674,331.112657 341.297902,330.624118 C340.810131,330.135579 340.018675,330.134956 339.530136,330.622728 Z M326.922358,343.591527 C326.236154,344.318746 325.55173,345.047678 324.869092,345.778315 C324.397788,346.282759 324.424653,347.073759 324.929096,347.545063 C325.43354,348.016368 326.22454,347.989503 326.695845,347.485059 C327.375673,346.75743 328.057279,346.031499 328.740658,345.307273 C329.214448,344.805163 329.19149,344.01404 328.689381,343.54025 C328.187271,343.06646 327.396148,343.089417 326.922358,343.591527 Z M314.738551,356.893864 C314.071456,357.644269 313.406206,358.396344 312.742807,359.150083 C312.286696,359.668305 312.337048,360.458158 312.85527,360.914268 C313.373492,361.370379 314.163345,361.320028 314.619456,360.801805 C315.280126,360.051167 315.942639,359.302186 316.60699,358.554868 C317.065663,358.038913 317.019227,357.24882 316.503272,356.790147 C315.987317,356.331473 315.197224,356.377909 314.738551,356.893864 Z M302.947831,370.560462 C302.30287,371.330871 301.659804,372.102895 301.018641,372.876527 C300.578119,373.408064 300.651901,374.196074 301.183438,374.636596 C301.714976,375.077118 302.502985,375.003336 302.943507,374.471799 C303.582034,373.701347 304.222455,372.932498 304.864764,372.165257 C305.307916,371.635911 305.238041,370.847545 304.708695,370.404393 C304.179348,369.961241 303.390983,370.031116 302.947831,370.560462 Z M291.594369,384.537614 C290.974164,385.324677 290.35589,386.11329 289.739555,386.903445 C289.314958,387.447788 289.412032,388.233268 289.956374,388.657865 C290.500717,389.082462 291.286197,388.985389 291.710794,388.441046 C292.324595,387.65414 292.940327,386.868769 293.557983,386.084941 C293.985266,385.542705 293.892077,384.756754 293.34984,384.329471 C292.807603,383.902188 292.021652,383.995377 291.594369,384.537614 Z M280.64961,398.858475 C280.052107,399.664781 279.456587,400.472583 278.863057,401.281872 C278.454782,401.838562 278.575097,402.62082 279.131787,403.029094 C279.688476,403.437368 280.470734,403.317054 280.879008,402.760364 C281.470099,401.954401 282.06317,401.149921 282.658217,400.346929 C283.069243,399.792268 282.952802,399.009424 282.398141,398.598399 C281.843479,398.187373 281.060635,398.303813 280.64961,398.858475 Z M270.122577,413.513924 C269.550819,414.335363 268.981077,415.158231 268.413358,415.982521 C268.021773,416.551075 268.165235,417.32942 268.733788,417.721005 C269.302342,418.112589 270.080687,417.969127 270.472272,417.400574 C271.037657,416.579673 271.605056,415.760188 272.174463,414.942126 C272.568851,414.375513 272.429234,413.596469 271.862621,413.202082 C271.296009,412.807694 270.516964,412.947311 270.122577,413.513924 Z M260.022296,428.494837 C259.475199,429.332906 258.930159,430.172345 258.387183,431.013145 C258.012667,431.593084 258.179196,432.366823 258.759135,432.741339 C259.339074,433.115855 260.112812,432.949326 260.487328,432.369387 C261.028071,431.532045 261.570869,430.696059 262.115716,429.861437 C262.493092,429.283355 262.330388,428.508803 261.752306,428.131427 C261.174224,427.754051 260.399672,427.916756 260.022296,428.494837 Z M250.387494,443.743503 C249.864561,444.598989 249.343732,445.455789 248.825015,446.313896 C248.467881,446.904698 248.657306,447.673152 249.248107,448.030286 C249.838909,448.38742 250.607363,448.197995 250.964497,447.607193 C251.48108,446.752617 251.999765,445.899342 252.520547,445.047376 C252.880601,444.45835 252.694983,443.688968 252.105957,443.328913 C251.516931,442.968859 250.747548,443.154477 250.387494,443.743503 Z M241.194677,459.297488 C240.696231,460.170221 240.199938,461.044215 239.705804,461.919462 C239.366406,462.520628 239.578611,463.283106 240.179777,463.622503 C240.780943,463.961901 241.54342,463.749696 241.882818,463.14853 C242.374918,462.276886 242.869168,461.40649 243.365562,460.53735 C243.70794,459.937876 243.499524,459.174355 242.90005,458.831976 C242.300577,458.489598 241.537055,458.698015 241.194677,459.297488 Z M232.479647,475.097295 C232.009163,475.981059 231.540851,476.866014 231.074716,477.752152 C230.753322,478.363132 230.988078,479.118971 231.599059,479.440365 C232.21004,479.761759 232.965878,479.527003 233.287272,478.916022 C233.751487,478.033534 234.21787,477.152224 234.686417,476.272101 C235.01083,475.662718 234.779817,474.905727 234.170435,474.581313 C233.561052,474.2569 232.804061,474.487913 232.479647,475.097295 Z M224.24697,491.131218 C223.802486,492.029481 223.360212,492.928877 222.920153,493.829399 C222.617051,494.449657 222.874156,495.198189 223.494414,495.501291 C224.114673,495.804394 224.863204,495.547288 225.166307,494.92703 C225.604552,494.030219 226.045004,493.134529 226.487656,492.239968 C226.793829,491.62122 226.540436,490.871423 225.921688,490.56525 C225.30294,490.259077 224.553143,490.51247 224.24697,491.131218 Z M216.477131,507.439924 C216.060285,508.349522 215.645672,509.260189 215.233298,510.171919 C214.948798,510.800927 215.228077,511.541471 215.857085,511.825971 C216.486093,512.110471 217.226638,511.831192 217.511138,511.202184 C217.921812,510.294213 218.334715,509.387301 218.749843,508.481453 C219.037453,507.853861 218.761844,507.111943 218.134252,506.824333 C217.50666,506.536723 216.764742,506.812332 216.477131,507.439924 Z M209.201323,523.961511 C208.811888,524.882774 208.424714,525.805046 208.039804,526.72832 C207.774158,527.36552 208.075362,528.097421 208.712562,528.363067 C209.349761,528.628713 210.081663,528.32751 210.347309,527.69031 C210.73063,526.770844 211.116208,525.852375 211.504037,524.934912 C211.772834,524.299035 211.475257,523.565652 210.839381,523.296855 C210.203504,523.028058 209.47012,523.325634 209.201323,523.961511 Z M202.423722,540.684706 C202.060706,541.620188 201.699992,542.556627 201.341585,543.494015 C201.095036,544.138844 201.417906,544.861449 202.062736,545.107998 C202.707565,545.354546 203.43017,545.031676 203.676719,544.386847 C204.033648,543.453326 204.392873,542.52075 204.754392,541.589127 C205.004141,540.94553 204.684864,540.22133 204.041267,539.971581 C203.397671,539.721832 202.673471,540.041109 202.423722,540.684706 Z M196.148353,557.598406 C195.8135,558.543835 195.480972,559.490161 195.150771,560.437375 C194.923523,561.089256 195.267757,561.801931 195.919639,562.029179 C196.571521,562.256426 197.284196,561.912192 197.511443,561.260311 C197.840282,560.317004 198.171439,559.374583 198.504911,558.433054 C198.735392,557.782308 198.394701,557.067933 197.743955,556.837451 C197.09321,556.60697 196.378834,556.947661 196.148353,557.598406 Z M190.379093,574.691685 C190.073318,575.644196 189.769876,576.597541 189.468771,577.551711 C189.261016,578.210065 189.626299,578.912184 190.284652,579.119939 C190.943006,579.327694 191.645125,578.962411 191.85288,578.304058 C192.152743,577.353822 192.454933,576.404409 192.759447,575.455826 C192.970459,574.798509 192.608658,574.09459 191.951341,573.883578 C191.294024,573.672566 190.590105,574.034368 190.379093,574.691685 Z M185.135837,591.897748 C184.857713,592.861463 184.581954,593.825958 184.308562,594.791225 C184.120434,595.455453 184.506388,596.146424 185.170617,596.334553 C185.834845,596.522681 186.525816,596.136727 186.713945,595.472499 C186.98621,594.51121 187.260833,593.55069 187.53781,592.590948 C187.729232,591.927661 187.34671,591.234783 186.683423,591.043361 C186.020137,590.85194 185.327259,591.234462 185.135837,591.897748 Z M180.402768,609.260688 C180.15382,610.230374 179.907245,611.20078 179.663043,612.171899 C179.494685,612.841411 179.900951,613.520639 180.570464,613.688997 C181.239976,613.857355 181.919204,613.45109 182.087562,612.781577 C182.330758,611.814457 182.576319,610.848046 182.824241,609.882353 C182.995909,609.213682 182.593009,608.532452 181.924337,608.360784 C181.255666,608.189116 180.574436,608.592016 180.402768,609.260688 Z M176.183255,626.770168 C175.962795,627.748437 175.744727,628.727372 175.529056,629.706966 C175.380619,630.381175 175.806842,631.048061 176.481051,631.196498 C177.15526,631.344935 177.822146,630.918712 177.970583,630.244503 C178.185367,629.268936 178.402538,628.294026 178.622093,627.31978 C178.773864,626.646314 178.350946,625.977327 177.67748,625.825555 C177.004013,625.673784 176.335026,626.096702 176.183255,626.770168 Z M172.480524,644.41602 C172.28931,645.399531 172.100497,646.383651 171.914085,647.368374 C171.785679,648.046683 172.231464,648.700655 172.909773,648.829061 C173.588082,648.957467 174.242054,648.511683 174.37046,647.833374 C174.556106,646.852691 174.744145,645.872609 174.934574,644.893135 C175.066326,644.215468 174.623774,643.559304 173.946106,643.427553 C173.268439,643.295801 172.612276,643.738353 172.480524,644.41602 Z M169.297656,662.188238 C169.13572,663.176501 168.97619,664.165319 168.819069,665.154685 C168.71079,665.836497 169.17573,666.476992 169.857542,666.58527 C170.539353,666.693549 171.179848,666.228609 171.288127,665.546798 C171.444605,664.56148 171.603482,663.57671 171.764755,662.592493 C171.876387,661.911223 171.414603,661.268448 170.733333,661.156816 C170.052062,661.045184 169.409288,661.506967 169.297656,662.188238 Z M166.645493,680.017856 C166.512738,681.010613 166.382395,682.003873 166.254466,682.997629 C166.166322,683.682335 166.649931,684.308854 167.334637,684.396998 C168.019342,684.485142 168.645861,684.001533 168.734005,683.316827 C168.861412,682.327126 168.991223,681.33792 169.123436,680.349214 C169.214938,679.664949 168.734409,679.036066 168.050144,678.944564 C167.365879,678.853061 166.736995,679.333591 166.645493,680.017856 Z M164.515506,697.953251 C164.412005,698.949743 164.310921,699.946686 164.212253,700.944075 C164.144291,701.631077 164.646123,702.243097 165.333125,702.311059 C166.020128,702.379021 166.632148,701.877189 166.70011,701.190187 C166.798376,700.196853 166.899049,699.203964 167.002129,698.211524 C167.073449,697.524862 166.574616,696.910396 165.887954,696.839076 C165.201292,696.767756 164.586826,697.266589 164.515506,697.953251 Z M162.914761,715.92483 C162.840525,716.92347 162.768703,717.92251 162.699296,718.921945 C162.651469,719.610642 163.170997,720.207713 163.859694,720.25554 C164.548391,720.303368 165.145462,719.78384 165.193289,719.095143 C165.262415,718.099753 165.333947,717.104757 165.407882,716.110161 C165.459059,715.421704 164.942443,714.822112 164.253987,714.770935 C163.56553,714.719757 162.965938,715.236374 162.914761,715.92483 Z M161.840488,733.921889 C161.795354,734.92272 161.752633,735.923903 161.712327,736.925432 C161.684567,737.61523 162.221254,738.196925 162.911052,738.224686 C163.600849,738.252446 164.182545,737.715759 164.210305,737.025962 C164.250449,736.028465 164.292998,735.031315 164.33795,734.034516 C164.369051,733.344861 163.835187,732.760573 163.145532,732.729472 C162.455877,732.698371 161.871589,733.232234 161.840488,733.921889 Z M161.289683,751.934048 C161.273555,752.935559 161.259834,753.937374 161.248521,754.939488 C161.240729,755.6298 161.79402,756.195726 162.484332,756.203518 C163.174644,756.211311 163.740569,755.65802 163.748362,754.967708 C163.759629,753.969606 163.773296,752.971802 163.789359,751.974302 C163.800475,751.284036 163.249914,750.715453 162.559648,750.704338 C161.869382,750.693222 161.300799,751.243782 161.289683,751.934048 Z M161.259689,769.988651 C161.272466,770.988845 161.287643,771.988738 161.305219,772.988326 C161.317355,773.678576 161.886751,774.228295 162.577,774.216158 C163.26725,774.204022 163.816969,773.634626 163.804832,772.944377 C163.787327,771.948793 163.772211,770.952904 163.759485,769.956715 C163.750666,769.266416 163.183919,768.713966 162.493619,768.722785 C161.803319,768.731604 161.25087,769.298351 161.259689,769.988651 Z M161.750926,788.015891 C161.792463,789.010467 161.836383,790.0047 161.882683,790.998583 C161.914808,791.688191 162.499888,792.221186 163.189497,792.189061 C163.879105,792.156936 164.4121,791.571855 164.379974,790.882247 C164.333861,789.892369 164.290119,788.902142 164.248748,787.911571 C164.219941,787.221816 163.637432,786.686012 162.947677,786.71482 C162.257922,786.743627 161.722119,787.326136 161.750926,788.015891 Z M162.766072,806.02899 C162.837551,807.035784 162.911482,808.042175 162.987863,809.048157 C163.040129,809.736531 163.640536,810.252199 164.328911,810.199933 C165.017286,810.147668 165.532954,809.54726 165.480688,808.858885 C165.404616,807.856978 165.330985,806.854662 165.259795,805.851944 C165.210905,805.163321 164.613033,804.644715 163.92441,804.693605 C163.235788,804.742495 162.717182,805.340368 162.766072,806.02899 Z M164.308149,824.017586 C164.408459,825.015569 164.51119,826.013103 164.61634,827.010183 C164.688742,827.696732 165.303994,828.194596 165.990543,828.122193 C166.677091,828.049791 167.174955,827.43454 167.102553,826.747991 C166.997831,825.754967 166.895517,824.761489 166.795616,823.767565 C166.726574,823.08067 166.113767,822.579801 165.426872,822.648842 C164.739977,822.717884 164.239108,823.330691 164.308149,824.017586 Z M166.372233,841.911809 C166.500916,842.899742 166.631985,843.887183 166.765439,844.874124 C166.857947,845.558254 167.487536,846.037858 168.171666,845.94535 C168.855795,845.852842 169.3354,845.223253 169.242892,844.539123 C169.109983,843.556211 168.979449,842.572801 168.851291,841.5889 C168.762122,840.904327 168.134881,840.421656 167.450307,840.510825 C166.765734,840.599994 166.283064,841.227236 166.372233,841.911809 Z M168.965192,859.760941 C169.124622,860.755096 169.286484,861.748695 169.450776,862.74173 C169.56346,863.422827 170.206946,863.883618 170.888044,863.770934 C171.569141,863.65825 172.029932,863.014764 171.917248,862.333666 C171.753629,861.344697 171.592429,860.355167 171.433652,859.365081 C171.324339,858.683434 170.683139,858.219467 170.001492,858.328781 C169.319846,858.438094 168.855878,859.079294 168.965192,859.760941 Z M172.089377,877.553724 C172.276639,878.534667 172.466285,879.515008 172.658313,880.49474 C172.791097,881.172206 173.447935,881.613757 174.1254,881.480973 C174.802866,881.348189 175.244418,880.691352 175.111634,880.013887 C174.920393,879.038176 174.731525,878.061858 174.545033,877.084941 C174.415582,876.406831 173.760924,875.962054 173.082814,876.091505 C172.404703,876.220956 171.959927,876.875614 172.089377,877.553724 Z M175.734152,895.221141 C175.952197,896.204194 176.172655,897.186579 176.395525,898.16829 C176.548362,898.841515 177.218017,899.263373 177.891242,899.110536 C178.564468,898.9577 178.986326,898.288044 178.833489,897.614819 C178.611536,896.637145 178.391984,895.658799 178.174836,894.679789 C178.025346,894.005813 177.357794,893.580633 176.683818,893.730123 C176.009842,893.879613 175.584662,894.547165 175.734152,895.221141 Z M179.896443,912.753194 C180.141208,913.720128 180.388328,914.686351 180.637801,915.651858 C180.810507,916.320262 181.492361,916.722105 182.160765,916.549399 C182.829169,916.376693 183.231012,915.694839 183.058306,915.026435 C182.809861,914.064904 182.563758,913.102659 182.320001,912.139707 C182.150592,911.47046 181.470726,911.065262 180.801479,911.234671 C180.132232,911.404081 179.727034,912.083947 179.896443,912.753194 Z M184.589027,930.195832 C184.864107,931.16083 185.141554,932.125051 185.421365,933.088488 C185.61391,933.75145 186.307434,934.132799 186.970396,933.940254 C187.633357,933.74771 188.014706,933.054185 187.822162,932.391224 C187.543503,931.431757 187.2672,930.47151 186.993254,929.51049 C186.804002,928.846582 186.112379,928.461796 185.44847,928.651048 C184.784561,928.8403 184.399775,929.531923 184.589027,930.195832 Z M189.795744,947.481214 C190.100847,948.442068 190.408322,949.402081 190.718164,950.361244 C190.930375,951.018175 191.634953,951.378692 192.291884,951.166481 C192.948815,950.95427 193.309331,950.249691 193.09712,949.592761 C192.788556,948.637553 192.482349,947.6815 192.178504,946.724608 C191.969573,946.066627 191.266802,945.702599 190.608821,945.911531 C189.95084,946.120462 189.586813,946.823233 189.795744,947.481214 Z M195.493854,964.544085 C195.823455,965.484386 196.155352,966.423807 196.489541,967.36234 C196.721117,968.012697 197.436064,968.352186 198.086421,968.12061 C198.736778,967.889034 199.076267,967.174086 198.844691,966.523729 C198.511881,965.589068 198.181353,964.653522 197.853112,963.7171 C197.624746,963.065609 196.911482,962.722598 196.259991,962.950964 C195.6085,963.179329 195.265489,963.892594 195.493854,964.544085 Z M201.71642,981.483803 C202.074765,982.416196 202.435394,983.347645 202.798302,984.278143 C203.049148,984.921313 203.773891,985.239355 204.417061,984.988509 C205.060231,984.737663 205.378272,984.01292 205.127427,983.36975 C204.766016,982.44309 204.406874,981.515484 204.050007,980.586938 C203.802345,979.942535 203.079183,979.620914 202.434781,979.868577 C201.790378,980.116239 201.468757,980.839401 201.71642,981.483803 Z M208.441982,998.234044 C208.828386,999.15643 209.217052,1000.07781 209.607977,1000.99818 C209.877867,1001.6336 210.611761,1001.92991 211.247175,1001.66002 C211.882588,1001.39013 212.178904,1000.65624 211.909014,1000.02082 C211.519701,999.10425 211.132638,998.186668 210.747828,997.268085 C210.481086,996.631343 209.748667,996.331399 209.111926,996.598142 C208.475184,996.864884 208.17524,997.597302 208.441982,998.234044 Z M215.666526,1014.78371 C216.080167,1015.69404 216.496041,1016.60331 216.914144,1017.51151 C217.202838,1018.1386 217.94523,1018.41293 218.572325,1018.12424 C219.199419,1017.83554 219.473747,1017.09315 219.185054,1016.46606 C218.768675,1015.56161 218.354515,1014.65609 217.942579,1013.74951 C217.656991,1013.12099 216.915965,1012.843 216.28745,1013.12858 C215.658935,1013.41417 215.380938,1014.1552 215.666526,1014.78371 Z M223.360638,1031.07011 C223.800519,1031.96651 224.242596,1032.86179 224.686865,1033.75595 C224.994047,1034.3742 225.744257,1034.62636 226.362504,1034.31918 C226.980752,1034.012 227.232921,1033.26179 226.925738,1032.64354 C226.4833,1031.75307 226.043044,1030.86148 225.604976,1029.96877 C225.30085,1029.34902 224.551895,1029.09315 223.932138,1029.39727 C223.312381,1029.7014 223.056512,1030.45035 223.360638,1031.07011 Z M231.542322,1047.135 C232.007369,1048.01554 232.474568,1048.8949 232.943914,1049.77308 C233.269317,1050.38194 234.026683,1050.61172 234.635538,1050.28632 C235.244392,1049.96091 235.474175,1049.20355 235.148772,1048.59469 C234.681359,1047.72013 234.216084,1046.84439 233.752952,1045.96748 C233.430549,1045.35703 232.674324,1045.12352 232.063875,1045.44593 C231.453426,1045.76833 231.219919,1046.52455 231.542322,1047.135 Z M240.207176,1062.96687 C240.7025,1063.8408 241.199977,1064.71347 241.699603,1065.58488 C242.042985,1066.18378 242.806854,1066.39091 243.405754,1066.04753 C244.004653,1065.70415 244.211791,1064.94028 243.86841,1064.34138 C243.370841,1063.47356 242.875411,1062.60448 242.382127,1061.73415 C242.041721,1061.13356 241.278889,1060.92263 240.678293,1061.26304 C240.077697,1061.60344 239.866771,1062.36627 240.207176,1062.96687 Z M249.350646,1078.55401 C249.86874,1079.40786 250.388927,1080.26041 250.911199,1081.11166 C251.272226,1081.70009 252.041913,1081.88444 252.630344,1081.52341 C253.218776,1081.16239 253.403124,1080.3927 253.042098,1079.80427 C252.521974,1078.95653 252.003928,1078.10748 251.487965,1077.25714 C251.129845,1076.66694 250.361076,1076.4788 249.770871,1076.83692 C249.180667,1077.19504 248.992525,1077.96381 249.350646,1078.55401 Z M258.937088,1093.83683 C259.483002,1094.6791 260.030989,1095.51999 260.581043,1096.35951 C260.959389,1096.93696 261.734213,1097.09836 262.31166,1096.72001 C262.889107,1096.34167 263.050511,1095.56684 262.672165,1094.98939 C262.124373,1094.15333 261.57864,1093.3159 261.034971,1092.47709 C260.65949,1091.89778 259.885475,1091.73254 259.30616,1092.10802 C258.726846,1092.4835 258.561607,1093.25752 258.937088,1093.83683 Z M268.989847,1108.85301 C269.562168,1109.68102 270.136531,1110.50758 270.712931,1111.3327 C271.108279,1111.89864 271.887559,1112.03694 272.453502,1111.64159 C273.019444,1111.24624 273.157738,1110.46696 272.76239,1109.90102 C272.18836,1109.07929 271.616358,1108.25612 271.046391,1107.43152 C270.653858,1106.86362 269.875274,1106.72146 269.307375,1107.11399 C268.739476,1107.50653 268.597314,1108.28511 268.989847,1108.85301 Z M279.436734,1123.49904 C280.033842,1124.3105 280.632953,1125.12045 281.23406,1125.92889 C281.645979,1126.48289 282.42901,1126.59806 282.983008,1126.18614 C283.537006,1125.77423 283.652184,1124.99119 283.240264,1124.4372 C282.641629,1123.63208 282.044981,1122.82546 281.450328,1122.01734 C281.041167,1121.4613 280.258718,1121.34223 279.70268,1121.75139 C279.146641,1122.16056 279.027573,1122.943 279.436734,1123.49904 Z M290.334657,1137.85824 C290.954806,1138.65068 291.576908,1139.44157 292.200955,1140.23089 C292.629111,1140.77244 293.41521,1140.86436 293.956759,1140.43621 C294.498307,1140.00805 294.59023,1139.22195 294.162075,1138.6804 C293.540593,1137.89433 292.921049,1137.10669 292.303449,1136.31751 C291.877988,1135.77384 291.092354,1135.67802 290.548687,1136.10348 C290.00502,1136.52894 289.909195,1137.31457 290.334657,1137.85824 Z M301.642303,1151.87476 C302.283578,1152.646 302.926746,1153.41564 303.5718,1154.18366 C304.015797,1154.7123 304.804273,1154.78092 305.332911,1154.33692 C305.861549,1153.89292 305.930164,1153.10445 305.486167,1152.57581 C304.843766,1151.81094 304.203243,1151.04447 303.564605,1150.2764 C303.12323,1149.74557 302.335103,1149.67305 301.804274,1150.11443 C301.273445,1150.5558 301.200928,1151.34393 301.642303,1151.87476 Z M313.38809,1165.58189 C314.048423,1166.32972 314.71058,1167.0759 315.374556,1167.82044 C315.834041,1168.33567 316.624206,1168.38086 317.139439,1167.92138 C317.654671,1167.46189 317.699864,1166.67173 317.240379,1166.15649 C316.579134,1165.41502 315.919701,1164.67191 315.262084,1163.92715 C314.805142,1163.40966 314.01521,1163.36058 313.49772,1163.81752 C312.980231,1164.27447 312.931148,1165.0644 313.38809,1165.58189 Z M325.527992,1178.92579 C326.211842,1179.6554 326.897475,1180.3833 327.584885,1181.10948 C328.059472,1181.61084 328.850631,1181.63254 329.351987,1181.15796 C329.853344,1180.68337 329.875045,1179.89221 329.400458,1179.39085 C328.715878,1178.66766 328.033067,1177.94276 327.352032,1177.21615 C326.879927,1176.71246 326.088886,1176.68685 325.585191,1177.15895 C325.081496,1177.63106 325.055887,1178.4221 325.527992,1178.92579 Z M338.052901,1191.89727 C338.757817,1192.60594 339.464464,1193.31286 340.172835,1194.018 C340.662104,1194.50504 341.453558,1194.50324 341.940598,1194.01397 C342.427638,1193.5247 342.425831,1192.73325 341.936563,1192.24621 C341.231111,1191.54397 340.527375,1190.83996 339.825364,1190.13421 C339.338509,1189.64476 338.547055,1189.64265 338.057603,1190.12951 C337.568151,1190.61636 337.566046,1191.40782 338.052901,1191.89727 Z M350.953711,1204.4871 C351.683603,1205.17852 352.415193,1205.8681 353.148475,1206.55584 C353.652017,1207.02811 354.443067,1207.00275 354.915335,1206.49921 C355.387602,1205.99567 355.362249,1205.20462 354.858706,1204.73235 C354.128449,1204.04745 353.399877,1203.36071 352.672996,1202.67215 C352.17181,1202.19738 351.380643,1202.2188 350.905876,1202.71998 C350.431109,1203.22117 350.452525,1204.01234 350.953711,1204.4871 Z M364.263472,1216.72371 C365.008851,1217.38873 365.755853,1218.05189 366.504472,1218.71318 C367.021872,1219.17022 367.811815,1219.12129 368.268857,1218.60389 C368.7259,1218.08649 368.676971,1217.29655 368.15957,1216.83951 C367.414044,1216.18095 366.670127,1215.52053 365.927827,1214.85825 C365.412696,1214.39865 364.622521,1214.44367 364.162922,1214.9588 C363.703323,1215.47393 363.748341,1216.26411 364.263472,1216.72371 Z M377.889869,1228.52137 C378.654105,1229.16336 379.419908,1229.80345 380.187271,1230.44161 C380.71806,1230.88304 381.506193,1230.81059 381.947616,1230.2798 C382.389039,1229.74901 382.316594,1228.96088 381.785804,1228.51946 C381.021617,1227.88393 380.258982,1227.24649 379.497907,1226.60715 C378.969311,1226.1631 378.180828,1226.23164 377.736781,1226.76024 C377.292734,1227.28884 377.361274,1228.07732 377.889869,1228.52137 Z M391.864817,1239.90973 C392.650705,1240.53086 393.438116,1241.15002 394.227041,1241.7672 C394.770781,1242.19257 395.556398,1242.09661 395.981767,1241.55287 C396.407136,1241.00914 396.311178,1240.22352 395.767439,1239.79815 C394.981783,1239.18353 394.197635,1238.56693 393.415004,1237.94837 C392.87339,1237.5203 392.087304,1237.61234 391.659232,1238.15395 C391.23116,1238.69557 391.323204,1239.48165 391.864817,1239.90973 Z M406.224607,1250.91329 C407.028165,1251.51011 407.833187,1252.10491 408.639664,1252.69768 C409.195925,1253.10654 409.978309,1252.98705 410.387167,1252.43079 C410.796026,1251.87453 410.676533,1251.09214 410.120272,1250.68329 C409.317143,1250.09298 408.515464,1249.50065 407.715242,1248.9063 C407.161027,1248.49468 406.378057,1248.61027 405.96643,1249.16448 C405.554802,1249.7187 405.670392,1250.50167 406.224607,1250.91329 Z M420.870359,1261.45406 C421.693381,1262.02786 422.517816,1262.59958 423.343656,1263.16922 C423.911936,1263.5612 424.690381,1263.41828 425.082362,1262.85 C425.474343,1262.28172 425.331425,1261.50327 424.763145,1261.11129 C423.940741,1260.54403 423.119735,1259.97468 422.300137,1259.40327 C421.733827,1259.00845 420.954676,1259.14747 420.559854,1259.71378 C420.165031,1260.28009 420.304049,1261.05924 420.870359,1261.45406 Z M435.7899,1271.52688 C436.627719,1272.07442 437.466885,1272.61984 438.307393,1273.16315 C438.887168,1273.53792 439.660979,1273.37173 440.035748,1272.79195 C440.410518,1272.21218 440.244328,1271.43837 439.664553,1271.0636 C438.82755,1270.52255 437.991882,1269.9794 437.157556,1269.43415 C436.579665,1269.05648 435.805031,1269.21879 435.427363,1269.79669 C435.049696,1270.37458 435.212009,1271.14921 435.7899,1271.52688 Z M451.06798,1281.18591 C451.921021,1281.70736 452.775348,1282.22667 453.630955,1282.74382 C454.221774,1283.10092 454.990218,1282.91146 455.347324,1282.32064 C455.70443,1281.72982 455.514968,1280.96138 454.924149,1280.60427 C454.072117,1280.08928 453.221359,1279.57215 452.371883,1279.05287 C451.782862,1278.69281 451.013477,1278.87842 450.653414,1279.46744 C450.293351,1280.05646 450.478959,1280.82584 451.06798,1281.18591 Z M466.599763,1290.36143 C467.46775,1290.85668 468.336965,1291.34974 469.207399,1291.84061 C469.808727,1292.17972 470.571103,1291.96716 470.910214,1291.36583 C471.249325,1290.7645 471.036756,1290.00212 470.435428,1289.66301 C469.568639,1289.1742 468.703064,1288.6832 467.838711,1288.19002 C467.239093,1287.8479 466.47566,1288.05663 466.133533,1288.65625 C465.791407,1289.25587 466.000145,1290.0193 466.599763,1290.36143 Z M482.423631,1299.0753 C483.310325,1299.54622 484.198198,1300.0149 485.087242,1300.48132 C485.698574,1300.80204 486.454156,1300.56646 486.774881,1299.95513 C487.095607,1299.3438 486.860024,1298.58822 486.248692,1298.26749 C485.363379,1297.80303 484.479231,1297.33632 483.596259,1296.86737 C482.986556,1296.54356 482.229793,1296.77532 481.905981,1297.38502 C481.582169,1297.99472 481.813929,1298.75149 482.423631,1299.0753 Z M498.479473,1307.29321 C499.377342,1307.73573 500.276324,1308.17597 501.176411,1308.61394 C501.797178,1308.916 502.545276,1308.65764 502.847334,1308.03687 C503.149392,1307.4161 502.891027,1306.668 502.27026,1306.36594 C501.373958,1305.92982 500.478757,1305.49142 499.584663,1305.05077 C498.96543,1304.74558 498.216036,1305.00016 497.910846,1305.61939 C497.605656,1306.23863 497.860239,1306.98802 498.479473,1307.29321 Z M514.80765,1315.03424 C515.717857,1315.44892 516.629115,1315.8613 517.541418,1316.27137 C518.171087,1316.55441 518.910979,1316.2734 519.194011,1315.64373 C519.477044,1315.01406 519.196039,1314.27417 518.566369,1313.99114 C517.657911,1313.58279 516.750492,1313.17215 515.84412,1312.75922 C515.21589,1312.47301 514.474587,1312.75027 514.188374,1313.3785 C513.90216,1314.00673 514.17942,1314.74803 514.80765,1315.03424 Z M531.293729,1322.24512 C532.215856,1322.63188 533.138975,1323.01632 534.063078,1323.39842 C534.701049,1323.66221 535.43207,1323.35887 535.69586,1322.7209 C535.95965,1322.08293 535.656317,1321.35191 535.018347,1321.08812 C534.098144,1320.70763 533.178921,1320.32482 532.260686,1319.93969 C531.62406,1319.67267 530.891512,1319.9723 530.624494,1320.60892 C530.357476,1321.24555 530.657103,1321.9781 531.293729,1322.24512 Z M548.084625,1328.98785 C549.019733,1329.34686 549.955778,1329.70351 550.892751,1330.05778 C551.53849,1330.30194 552.259893,1329.9764 552.504051,1329.33066 C552.748209,1328.68492 552.422663,1327.96351 551.776925,1327.71936 C550.843912,1327.36658 549.911824,1327.01144 548.980668,1326.65395 C548.336178,1326.40651 547.61313,1326.72839 547.365695,1327.37288 C547.118259,1328.01737 547.440136,1328.74042 548.084625,1328.98785 Z M565.010978,1335.19191 C565.957707,1335.52263 566.905315,1335.85095 567.853795,1336.17687 C568.506681,1336.40121 569.217818,1336.05381 569.442165,1335.40093 C569.666511,1334.74804 569.319112,1334.03691 568.666226,1333.81256 C567.72176,1333.48802 566.778162,1333.16109 565.835439,1332.83177 C565.183705,1332.6041 564.470807,1332.94787 564.243138,1333.59961 C564.01547,1334.25134 564.359243,1334.96424 565.010978,1335.19191 Z M582.114565,1340.87538 C583.071689,1341.17729 584.029635,1341.47678 584.988397,1341.77383 C585.647826,1341.97815 586.348029,1341.60921 586.552343,1340.94978 C586.756658,1340.29035 586.387714,1339.59014 585.728285,1339.38583 C584.773584,1339.09003 583.819694,1338.79181 582.866623,1338.49118 C582.208245,1338.28351 581.506169,1338.64887 581.298494,1339.30725 C581.090819,1339.96563 581.456186,1340.66771 582.114565,1340.87538 Z M599.384589,1346.03439 C600.349834,1346.30675 601.315841,1346.57667 602.282604,1346.84414 C602.947964,1347.02823 603.636576,1346.63808 603.820662,1345.97272 C604.004748,1345.30736 603.614598,1344.61875 602.949238,1344.43466 C601.98657,1344.16832 601.024655,1343.89954 600.063499,1343.62834 C599.399087,1343.44086 598.708495,1343.8275 598.521019,1344.49191 C598.333543,1345.15632 598.720177,1345.84691 599.384589,1346.03439 Z M616.754065,1350.65115 C617.725835,1350.89366 618.698309,1351.13372 619.67148,1351.37133 C620.342135,1351.53508 621.018551,1351.12415 621.182298,1350.45349 C621.346044,1349.78283 620.935113,1349.10642 620.264457,1348.94267 C619.295408,1348.70607 618.327053,1348.46703 617.359399,1348.22554 C616.689586,1348.05838 616.011086,1348.46586 615.843928,1349.13568 C615.67677,1349.80549 616.084252,1350.48399 616.754065,1350.65115 Z M634.267626,1354.73949 C635.246578,1354.95235 636.226179,1355.16274 637.206421,1355.37067 C637.881752,1355.51391 638.54534,1355.08257 638.688587,1354.40724 C638.831834,1353.73191 638.400495,1353.06832 637.725164,1352.92508 C636.74907,1352.71803 635.773615,1352.50853 634.798805,1352.29657 C634.124212,1352.14989 633.458437,1352.57785 633.311756,1353.25244 C633.165075,1353.92704 633.593032,1354.59281 634.267626,1354.73949 Z M651.972661,1358.30676 C652.958019,1358.48968 653.943969,1358.67012 654.930506,1358.84807 C655.609897,1358.97062 656.26,1358.51921 656.38255,1357.83982 C656.5051,1357.16043 656.053691,1356.51033 655.374299,1356.38777 C654.391931,1356.21057 653.410148,1356.0309 652.428954,1355.84875 C651.750195,1355.72275 651.097806,1356.17085 650.971805,1356.84961 C650.845803,1357.52837 651.293902,1358.18076 651.972661,1358.30676 Z M669.74451,1361.32664 C670.73549,1361.47955 671.72701,1361.62997 672.719063,1361.7779 C673.401869,1361.87972 674.037931,1361.40873 674.139747,1360.72593 C674.241563,1360.04312 673.770577,1359.40706 673.087771,1359.30524 C672.099902,1359.15794 671.112563,1359.00815 670.125762,1358.85588 C669.443481,1358.7506 668.805036,1359.21835 668.699757,1359.90063 C668.594477,1360.58291 669.062229,1361.22136 669.74451,1361.32664 Z M687.630284,1363.80844 C688.624906,1363.93107 689.620013,1364.0512 690.615599,1364.16884 C691.301186,1364.24985 691.922634,1363.75974 692.003643,1363.07416 C692.084652,1362.38857 691.594545,1361.76712 690.908958,1361.68611 C689.917558,1361.56897 688.926635,1361.44934 687.936196,1361.32723 C687.251028,1361.24275 686.627109,1361.72971 686.542634,1362.41488 C686.458159,1363.10005 686.945116,1363.72397 687.630284,1363.80844 Z M705.561026,1365.74377 C706.559095,1365.83624 707.557597,1365.9262 708.556526,1366.01367 C709.24425,1366.07389 709.850578,1365.5652 709.910797,1364.87747 C709.971016,1364.18975 709.462323,1363.58342 708.774598,1363.5232 C707.779854,1363.4361 706.785535,1363.34651 705.791649,1363.25443 C705.104236,1363.19075 704.495352,1363.69638 704.431667,1364.38379 C704.367983,1365.0712 704.873614,1365.68009 705.561026,1365.74377 Z M723.585436,1367.13888 C724.585282,1367.20109 725.585509,1367.2608 726.586113,1367.31802 C727.275343,1367.35743 727.866024,1366.83065 727.905437,1366.14142 C727.944849,1365.45219 727.418068,1364.86151 726.728838,1364.8221 C725.732407,1364.76512 724.736351,1364.70565 723.740677,1364.64371 C723.051653,1364.60084 722.458337,1365.12465 722.415469,1365.81367 C722.3726,1366.5027 722.896412,1367.09601 723.585436,1367.13888 Z M741.573817,1367.98734 C742.575064,1368.01955 743.576644,1368.04927 744.578551,1368.07649 C745.268653,1368.09524 745.843292,1367.55101 745.862043,1366.86091 C745.880795,1366.1708 745.336559,1365.59616 744.646458,1365.57741 C743.648706,1365.5503 742.651282,1365.52071 741.654189,1365.48864 C740.96419,1365.46644 740.386844,1366.00781 740.364649,1366.6978 C740.342455,1367.3878 740.883818,1367.96515 741.573817,1367.98734 Z M759.635654,1368.29781 C760.090378,1368.29883 760.54516,1368.29934 761,1368.29934 C761.690356,1368.29934 762.25,1367.7397 762.25,1367.04934 C762.25,1366.35899 761.690356,1365.79934 761,1365.79934 C760.547035,1365.79934 760.094129,1365.79883 759.641281,1365.79782 C758.950927,1365.79626 758.390025,1366.35464 758.388471,1367.045 C758.386917,1367.73535 758.9453,1368.29625 759.635654,1368.29781 Z" id="circle-6"></path>
            </g>
        </g>
    </g>
</svg>